<?xml version="1.0" standalone="no"?>
<!DOCTYPE svg PUBLIC "-//W3C//DTD SVG 20010904//EN"
 "http://www.w3.org/TR/2001/REC-SVG-20010904/DTD/svg10.dtd">
<svg version="1.0" xmlns="http://www.w3.org/2000/svg"
 width="7500.000000pt" height="5000.000000pt" viewBox="0 0 7500.000000 5000.000000"
 preserveAspectRatio="xMidYMid meet">

<g transform="translate(0.000000,5000.000000) scale(0.100000,-0.100000)"
fill="#000000" stroke="none">
<path d="M38768 45655 c4 -5 7 -12 7 -15 0 -3 6 -14 13 -25 l12 -20 -2 20 c-2
13 2 19 12 17 8 -2 11 0 7 5 -5 4 -13 9 -18 9 -22 3 -23 5 -9 14 12 7 10 9 -7
7 -12 0 -19 -6 -15 -12z"/>
<path d="M38806 45583 c-4 -9 -2 -20 4 -25 5 -4 8 -5 5 -2 -2 4 0 15 6 25 6
11 6 19 0 19 -5 0 -12 -8 -15 -17z"/>
<path d="M38825 45540 c-4 -6 -11 -7 -17 -4 -7 4 -8 2 -4 -5 6 -8 12 -9 20 -2
7 6 16 8 19 4 4 -3 7 -1 7 5 0 15 -17 16 -25 2z"/>
<path d="M38870 43398 c0 -1639 -3 -2127 -12 -2136 -8 -8 -8 -12 -1 -12 12 0
23 23 23 50 0 10 6 21 13 23 10 4 10 6 0 6 -7 1 -13 6 -13 12 0 6 7 9 15 5 13
-5 14 -2 4 17 -9 18 -9 20 2 10 20 -19 25 -16 25 16 0 21 -7 33 -23 42 l-23
12 0 1957 c0 1673 2 1959 14 1969 10 8 16 9 21 2 3 -6 16 -10 29 -9 l23 2 -21
33 c-22 34 -43 45 -32 16 6 -15 -8 -32 -26 -33 -9 0 -6 30 5 47 4 6 2 15 -3
18 -7 5 -5 12 7 21 16 13 16 14 1 8 -10 -3 -18 -2 -18 4 0 6 5 12 11 14 7 2 5
9 -5 17 -15 12 -16 -159 -16 -2111z m73 1989 c3 -8 -1 -14 -8 -14 -7 0 -11 6
-8 14 3 7 6 13 8 13 2 0 5 -6 8 -13z m-30 -3986 c3 -14 0 -17 -14 -14 -19 5
-25 24 -13 36 10 9 21 0 27 -22z"/>
<path d="M38893 45405 c0 -8 4 -12 9 -9 5 3 6 10 3 15 -9 13 -12 11 -12 -6z"/>
<path d="M38960 45332 c0 -7 6 -15 14 -18 8 -3 12 -12 10 -19 -3 -7 -1 -16 5
-19 16 -11 19 7 5 39 -7 17 -13 23 -14 15 0 -13 -1 -13 -10 0 -7 10 -10 11
-10 2z"/>
<path d="M38964 45259 c1 -36 4 -45 15 -41 9 3 12 1 8 -5 -5 -7 4 -10 23 -9
29 2 34 -4 33 -41 0 -7 3 -11 7 -10 4 1 8 -2 8 -8 0 -5 -3 -9 -7 -8 -4 1 -8
-14 -8 -33 0 -33 2 -35 26 -29 20 4 22 3 11 -5 -11 -7 -11 -10 -2 -10 7 0 10
-5 6 -11 -4 -8 -9 -7 -15 2 -7 12 -10 12 -21 0 -10 -10 -10 -12 0 -7 9 6 12
-327 12 -1648 0 -1566 1 -1656 18 -1665 9 -6 12 -11 5 -11 -6 0 -18 9 -25 19
-12 17 -14 15 -14 -25 0 -24 4 -44 8 -44 4 0 7 3 7 8 -3 18 2 32 11 32 5 0 7
-7 4 -15 -4 -8 -2 -15 2 -15 10 0 47 85 47 107 0 7 5 13 11 13 6 0 4 5 -4 10
-9 6 -11 10 -3 10 7 0 10 7 6 15 -3 10 0 15 8 13 8 -2 14 5 14 17 0 11 5 25
11 30 10 10 44 92 48 118 1 6 4 17 8 22 17 27 79 251 82 293 0 12 4 22 7 22 4
0 10 15 13 33 3 17 8 41 11 52 36 148 92 488 93 565 0 8 6 87 12 175 14 182 7
454 -16 674 -15 150 -57 407 -76 476 -6 22 -13 47 -14 55 -2 8 -6 31 -9 50 -4
19 -14 44 -23 54 -11 13 -12 17 -3 11 10 -6 12 -4 6 6 -5 7 -10 20 -10 29 -4
43 -18 80 -27 74 -7 -5 -8 -2 -3 5 9 15 -14 101 -27 101 -5 0 -7 4 -4 9 6 9
-33 132 -54 170 -11 21 -35 24 -35 5 0 -5 -4 -15 -8 -21 -5 -7 -4 -13 1 -13 5
0 9 -6 9 -13 0 -8 -5 -14 -12 -14 -15 0 -18 47 -4 63 9 11 8 14 -2 14 -11 0
-11 2 1 9 8 6 17 8 21 5 4 -2 10 0 14 6 3 5 -2 10 -12 10 -15 0 -16 2 -3 10
14 9 7 15 -14 11 -5 -1 -3 6 5 15 9 12 9 15 2 10 -13 -7 -17 4 -14 32 1 8 -5
25 -14 39 -9 13 -18 34 -20 46 -3 11 -10 24 -16 27 -6 4 -9 9 -8 11 2 2 -6 25
-16 51 -19 45 -20 46 -39 30 -12 -11 -16 -12 -11 -3 5 9 4 12 -2 8 -12 -8 -36
17 -26 26 3 4 12 2 19 -4 15 -12 37 -3 28 12 -3 5 -9 7 -14 4 -13 -8 -39 5
-43 23 -2 10 -4 -4 -3 -29z m115 -165 c-15 -18 -26 -18 -26 1 0 8 5 11 10 8 7
-4 8 1 3 12 -5 15 -4 16 9 5 12 -10 13 -16 4 -26z m29 -49 c-3 -3 -9 2 -12 12
-6 14 -5 15 5 6 7 -7 10 -15 7 -18z m59 -197 c-3 -8 -6 -5 -6 6 -1 11 2 17 5
13 3 -3 4 -12 1 -19z m-13 -36 c3 -5 -1 -9 -9 -9 -8 0 -12 4 -9 9 3 4 7 8 9 8
2 0 6 -4 9 -8z m6 -2818 c0 -8 -19 -13 -24 -6 -3 5 1 9 9 9 8 0 15 -2 15 -3z
m-13 -39 c0 -6 -6 -12 -12 -12 -6 0 -12 6 -12 12 0 6 6 12 12 12 6 0 12 -6 12
-12z m19 -47 c4 -7 4 -10 -1 -6 -10 10 -37 -11 -30 -22 3 -5 1 -11 -4 -14 -13
-9 -7 19 8 38 16 19 18 19 27 4z"/>
<path d="M45935 43184 c-398 -30 -686 -84 -1005 -190 -1274 -425 -2270 -1526
-2605 -2879 -92 -371 -119 -609 -119 -1035 0 -347 10 -472 60 -750 65 -362
204 -793 346 -1074 l30 -58 -30 -32 c-16 -17 -799 -838 -1741 -1824 -1147
-1202 -1711 -1798 -1707 -1808 3 -9 1 -12 -4 -9 -14 9 -70 -49 -70 -72 0 -13
-3 -14 -8 -5 -13 20 -39 -18 -33 -48 9 -47 11 -9551 2 -9568 -6 -11 -4 -20 7
-30 16 -13 16 -13 -1 -8 -11 4 -16 2 -12 -5 12 -18 -14 -35 -48 -34 -33 2 -34
0 -32 -32 2 -37 -7 -47 -45 -49 -34 -2 -34 -2 -19 -21 12 -14 12 -16 0 -8 -10
6 -12 4 -6 -5 5 -9 4 -11 -3 -6 -9 5 -12 1193 -12 4739 0 2603 -2 4746 -4
4762 -2 17 2 45 10 64 23 56 1 59 -48 7 -25 -25 -41 -47 -36 -47 4 -1 14 -2
21 -3 6 -1 11 -8 9 -14 -2 -10 3 -10 18 -2 l20 11 0 -4772 c0 -2625 2 -4774 4
-4777 9 -9 415 411 425 440 2 7 14 20 25 30 12 9 18 17 15 18 -4 0 7 15 25 33
35 38 37 41 151 192 336 447 640 1036 825 1594 99 300 184 658 229 966 71 484
80 1052 25 1525 -89 767 -341 1537 -718 2193 -37 65 -66 123 -63 130 4 9 4303
4514 4465 4679 l37 38 120 -60 c403 -202 810 -323 1285 -382 164 -20 671 -17
845 5 547 71 1031 238 1498 517 909 541 1594 1476 1851 2528 79 324 114 590
123 932 18 739 -137 1412 -477 2067 -195 377 -424 688 -735 999 -332 332 -662
568 -1068 764 -400 193 -785 304 -1227 355 -132 15 -495 27 -595 19z m450
-2499 c111 -20 298 -81 396 -130 449 -226 771 -660 865 -1170 29 -154 26 -492
-5 -635 -148 -688 -672 -1193 -1328 -1281 -137 -18 -393 -6 -524 24 -597 140
-1055 622 -1189 1252 -28 129 -38 411 -20 552 91 732 658 1314 1366 1403 97
12 332 4 439 -15z m-7244 -7188 c-6 -8 -7 -18 -3 -22 4 -5 2 -5 -4 -2 -7 4
-15 0 -18 -9 -4 -9 -9 -14 -13 -10 -4 3 4 17 17 31 25 26 41 35 21 12z m29
-37 c0 -5 -2 -10 -4 -10 -3 0 -8 5 -11 10 -3 6 -1 10 4 10 6 0 11 -4 11 -10z
m-106 -32 c-5 -7 -2 -9 8 -6 8 4 15 0 15 -8 0 -7 -4 -11 -9 -8 -4 3 -8 -1 -8
-9 0 -7 7 -14 15 -14 8 0 15 9 15 19 0 11 4 17 8 14 5 -3 8 -15 7 -27 -1 -16
-9 -23 -28 -25 -27 -3 -29 1 -29 46 0 26 1 30 8 30 3 0 2 -5 -2 -12z m-174
-202 c0 -3 -4 -8 -10 -11 -5 -3 -10 -1 -10 4 0 6 5 11 10 11 6 0 10 -2 10 -4z
m-28 -52 c-2 -14 -7 -22 -11 -16 -3 5 -14 8 -25 6 -16 -2 -16 0 4 21 27 29 39
25 32 -11z m218 -9360 c0 -8 -4 -12 -10 -9 -5 3 -10 13 -10 21 0 8 5 12 10 9
6 -3 10 -13 10 -21z m-70 -69 c0 -1 -9 -10 -19 -19 -19 -17 -19 -17 -16 1 2
10 4 18 4 19 2 2 31 1 31 -1z m-80 -81 c0 -8 -19 -13 -24 -6 -3 5 1 9 9 9 8 0
15 -2 15 -3z"/>
<path d="M39043 41625 c0 -8 4 -12 9 -9 5 3 6 10 3 15 -9 13 -12 11 -12 -6z"/>
<path d="M38963 41581 c0 -11 6 -19 11 -18 6 1 11 -5 11 -13 2 -23 -7 -34 -15
-20 -5 8 -8 4 -7 -11 1 -16 8 -25 19 -25 9 0 15 3 12 7 -2 4 2 9 8 12 10 3 9
8 -2 22 -13 17 -13 18 1 13 9 -3 16 -1 16 5 0 7 4 20 8 30 6 13 2 17 -16 16
-23 0 -23 -1 -4 -9 11 -5 14 -9 7 -9 -7 -1 -10 -5 -7 -11 3 -5 2 -10 -3 -10
-14 0 -33 26 -25 33 3 4 1 7 -5 7 -6 0 -10 -9 -9 -19z"/>
<path d="M38970 41469 c0 -5 5 -7 10 -4 6 3 10 8 10 11 0 2 -4 4 -10 4 -5 0
-10 -5 -10 -11z"/>
<path d="M38930 41430 c7 -4 9 -13 6 -19 -4 -6 -2 -11 3 -11 6 0 11 6 11 14 0
8 6 16 13 19 6 2 -1 4 -17 4 -17 0 -23 -3 -16 -7z"/>
<path d="M38804 41238 c1 -31 5 -38 21 -38 13 0 16 3 8 8 -7 4 -11 18 -8 30 2
13 0 20 -5 17 -4 -3 -10 1 -13 7 -2 7 -4 -4 -3 -24z"/>
<path d="M38765 41190 c3 -5 8 -10 11 -10 2 0 4 5 4 10 0 6 -5 10 -11 10 -5 0
-7 -4 -4 -10z"/>
<path d="M38806 41173 c-6 -14 -5 -15 5 -6 7 7 10 15 7 18 -3 3 -9 -2 -12 -12z"/>
<path d="M38760 41166 c0 -2 8 -10 18 -17 15 -13 16 -12 3 4 -13 16 -21 21
-21 13z"/>
<path d="M39012 33384 c-7 -8 -8 -14 -3 -14 10 0 25 19 20 25 -2 1 -10 -3 -17
-11z"/>
<path d="M38961 33346 c-10 -11 -9 -14 1 -12 14 2 23 15 15 22 -2 2 -10 -2
-16 -10z"/>
<path d="M39002 33318 c-12 -12 -5 -38 10 -38 7 0 6 5 -1 13 -6 8 -8 17 -4 20
3 4 12 2 20 -4 8 -7 13 -8 13 -1 0 15 -26 22 -38 10z"/>
<path d="M38946 33304 c-3 -8 -10 -13 -15 -10 -5 3 -15 -4 -23 -17 -13 -20
-13 -25 4 -52 16 -25 18 -26 13 -7 -6 21 -4 23 17 18 20 -6 20 -5 5 4 -9 6
-21 9 -25 6 -5 -3 -9 1 -9 9 0 8 4 12 8 10 13 -9 40 7 35 20 -2 7 1 18 7 24 8
8 8 11 0 11 -6 0 -14 -7 -17 -16z m4 -20 c0 -8 -19 -13 -24 -6 -3 5 1 9 9 9 8
0 15 -2 15 -3z"/>
<path d="M38970 33290 c0 -5 5 -10 11 -10 5 0 7 5 4 10 -3 6 -8 10 -11 10 -2
0 -4 -4 -4 -10z"/>
<path d="M38776 33133 c2 -7 -1 -15 -6 -18 -6 -4 -10 -16 -10 -28 0 -16 6 -23
20 -23 11 0 20 4 20 8 0 4 -7 8 -15 8 -8 0 -15 7 -15 16 0 8 5 12 10 9 6 -4 9
-1 8 7 -2 7 3 12 10 10 8 -1 11 2 7 8 -3 6 -10 8 -15 5 -4 -3 -10 -2 -13 2 -2
5 -2 3 -1 -4z"/>
<path d="M38778 33043 c7 -3 16 -2 19 1 4 3 -2 6 -13 5 -11 0 -14 -3 -6 -6z"/>
<path d="M38844 23585 c-4 -8 -11 -12 -17 -8 -6 4 -7 1 -2 -7 6 -10 11 -10 20
3 7 9 16 13 20 9 5 -4 5 -1 1 6 -9 16 -15 15 -22 -3z"/>
<path d="M38803 23545 c0 -8 4 -12 9 -9 4 3 8 9 8 15 0 5 -4 9 -8 9 -5 0 -9
-7 -9 -15z"/>
<path d="M43508 20330 c-694 -45 -1309 -319 -1755 -784 -353 -367 -573 -811
-660 -1331 -26 -158 -26 -631 0 -790 87 -528 319 -987 682 -1350 140 -141 244
-226 410 -337 132 -88 407 -227 556 -282 579 -212 1322 -220 1902 -20 922 318
1547 1059 1694 2004 25 163 25 587 0 750 -116 747 -518 1357 -1155 1747 -477
294 -1068 432 -1674 393z m367 -990 c283 -27 534 -115 733 -257 393 -281 603
-721 602 -1266 -1 -456 -135 -815 -411 -1101 -238 -248 -529 -387 -888 -426
-151 -17 -393 -8 -534 20 -632 124 -1064 601 -1147 1266 -16 129 -14 391 5
520 29 204 101 417 191 566 99 166 263 340 411 438 288 190 657 276 1038 240z"/>
<path d="M20220 19780 l0 -470 788 -2 787 -3 3 -1967 2 -1968 560 0 560 0 0
1970 0 1970 785 0 785 0 0 470 0 470 -2135 0 -2135 0 0 -470z"/>
<path d="M25120 17810 l0 -2440 1810 0 1810 0 0 470 0 470 -1247 2 -1248 3 -3
548 -2 547 1125 0 1125 0 0 455 0 455 -1125 0 -1125 0 2 498 3 497 1233 3
1232 2 0 465 0 465 -1795 0 -1795 0 0 -2440z"/>
<path d="M29510 17810 l0 -2440 560 0 560 0 2 1196 3 1197 960 -1196 960
-1196 698 -1 c383 0 697 2 697 4 0 3 -473 577 -1051 1276 -632 766 -1048 1278
-1045 1286 7 18 1947 2226 1952 2221 3 -3 1653 -4145 1835 -4609 l70 -178 483
0 483 0 237 588 c130 323 571 1420 980 2437 l744 1850 -590 3 c-325 1 -593 0
-595 -2 -3 -2 -281 -732 -619 -1623 -338 -890 -617 -1625 -620 -1633 -4 -11
-8 -9 -18 10 -7 14 -284 751 -617 1637 l-604 1613 -1245 -1 -1245 0 -910
-1075 c-500 -592 -918 -1082 -927 -1091 -17 -15 -18 36 -18 1075 l0 1092 -560
0 -560 0 0 -2440z"/>
<path d="M39230 17810 l0 -2440 560 0 560 0 0 2440 0 2440 -560 0 -560 0 0
-2440z"/>
<path d="M47080 17810 l0 -2440 560 0 560 0 2 1455 3 1455 1170 -1454 1170
-1455 413 0 412 -1 0 2440 0 2440 -560 0 -560 0 -2 -1475 -3 -1475 -1189 1475
-1189 1475 -394 0 -393 0 0 -2440z"/>
<path d="M26070 14604 c-211 -14 -390 -48 -565 -106 -614 -204 -1043 -679
-1168 -1292 -30 -151 -32 -526 -3 -681 70 -381 278 -739 569 -984 267 -224
589 -367 962 -428 171 -28 546 -25 719 6 410 72 739 237 1006 501 253 250 411
550 477 900 24 132 29 449 9 590 -77 535 -374 970 -844 1238 -205 117 -463
203 -707 236 -115 15 -361 26 -455 20z m362 -858 c316 -69 549 -299 630 -623
19 -75 23 -115 23 -273 0 -224 -18 -309 -97 -470 -46 -93 -64 -117 -152 -206
-92 -92 -111 -106 -206 -152 -160 -77 -211 -87 -430 -87 -198 0 -252 9 -383
62 -231 94 -412 311 -477 573 -27 109 -38 343 -21 461 57 395 334 675 721 729
87 12 309 4 392 -14z"/>
<path d="M22790 14594 c-542 -46 -956 -227 -1282 -560 -104 -107 -119 -125
-192 -232 -251 -369 -343 -865 -245 -1321 159 -736 786 -1272 1600 -1367 171
-20 493 -14 654 11 259 41 477 118 697 248 115 68 260 176 256 189 -2 6 -150
151 -328 323 l-323 313 -76 -61 c-90 -71 -224 -139 -336 -168 -115 -30 -369
-38 -486 -14 -172 34 -307 104 -427 219 -160 153 -238 324 -262 575 -27 291
51 554 219 734 116 123 250 203 416 248 118 32 382 33 508 1 149 -37 277 -105
379 -200 l47 -44 326 318 c179 175 325 321 325 325 0 4 -19 22 -42 41 -250
204 -613 356 -963 403 -113 14 -385 26 -465 19z"/>
<path d="M49575 14590 c-719 -64 -1321 -450 -1594 -1024 -166 -348 -203 -758
-105 -1156 147 -590 628 -1064 1254 -1234 497 -135 1063 -92 1485 114 316 154
580 424 733 750 126 268 179 520 189 893 l6 217 -972 0 -971 0 0 -379 0 -378
208 -6 c114 -4 309 -10 435 -13 162 -5 227 -10 227 -19 0 -25 -75 -134 -133
-193 -110 -112 -251 -183 -421 -213 -44 -7 -126 -10 -225 -6 -129 4 -171 9
-244 31 -308 92 -521 313 -599 623 -32 127 -33 382 -1 498 43 157 104 267 212
379 122 127 269 212 446 257 128 33 378 34 509 1 185 -46 325 -127 490 -283
l96 -91 53 46 c28 25 178 169 332 321 l280 275 -100 97 c-256 249 -641 424
-1050 477 -154 19 -411 27 -540 16z"/>
<path d="M28500 12850 l0 -1690 485 0 485 0 2 789 3 788 280 -393 280 -394
315 0 316 0 282 391 282 392 0 -787 0 -786 490 0 490 0 0 1690 0 1690 -361 -2
-362 -3 -562 -800 c-310 -440 -568 -800 -574 -800 -6 0 -265 360 -574 800
l-563 800 -357 3 -357 2 0 -1690z"/>
<path d="M32780 12850 l0 -1690 495 0 495 0 0 589 0 589 403 5 c446 5 510 12
694 72 249 83 441 224 568 419 99 152 146 293 165 493 20 217 -16 436 -99 608
-148 302 -404 489 -793 578 -90 20 -118 21 -1010 24 l-918 4 0 -1691z m1489
1000 c89 -12 181 -52 241 -106 92 -83 124 -173 118 -328 -3 -83 -9 -111 -30
-158 -31 -67 -94 -132 -167 -172 -93 -50 -134 -56 -408 -56 l-253 0 0 415 0
415 213 0 c116 0 246 -5 286 -10z"/>
<path d="M35923 13423 c3 -1111 3 -1119 25 -1215 159 -697 715 -1108 1502
-1108 468 0 852 143 1130 420 180 181 299 404 362 678 22 96 22 103 25 1220
l4 1122 -490 0 -490 0 -3 -1097 c-3 -1013 -5 -1103 -21 -1158 -48 -161 -180
-284 -353 -329 -81 -21 -247 -21 -328 0 -138 36 -270 132 -329 242 -57 106
-57 90 -57 1265 l0 1077 -490 0 -491 0 4 -1117z"/>
<path d="M39280 14135 l0 -405 520 0 520 0 0 -1285 0 -1285 490 0 490 0 0
1285 0 1285 525 0 525 0 0 405 0 405 -1535 0 -1535 0 0 -405z"/>
<path d="M42720 12850 l0 -1690 490 0 490 0 0 1690 0 1690 -490 0 -490 0 0
-1690z"/>
<path d="M44280 12850 l0 -1690 490 0 490 0 0 856 c0 709 2 855 13 845 7 -6
326 -391 708 -855 l694 -845 373 -1 372 0 0 1690 0 1690 -490 0 -490 0 -2
-891 -3 -891 -730 888 -730 889 -348 3 -347 2 0 -1690z"/>
<path d="M32430 9565 l0 -775 105 0 104 0 3 343 c3 328 4 344 25 382 48 89
128 134 237 135 99 0 143 -16 201 -75 72 -71 75 -91 75 -471 l0 -314 106 0
105 0 -3 373 c-5 400 -3 387 -60 492 -22 41 -106 118 -154 143 -158 80 -374
54 -496 -61 l-38 -35 0 319 0 319 -105 0 -105 0 0 -775z"/>
<path d="M39670 9565 l0 -775 105 0 105 0 0 775 0 775 -105 0 -105 0 0 -775z"/>
<path d="M44310 9565 l0 -775 105 0 105 0 0 775 0 775 -105 0 -105 0 0 -775z"/>
<path d="M22832 10304 c-97 -21 -181 -66 -239 -127 -101 -107 -129 -218 -97
-382 11 -54 51 -119 102 -167 68 -63 124 -91 352 -173 201 -72 270 -129 284
-235 14 -108 -38 -188 -149 -229 -53 -20 -74 -22 -176 -19 -107 4 -120 6 -191
40 -51 24 -93 54 -132 93 l-56 57 -76 -68 -77 -68 80 -77 c141 -136 279 -185
498 -176 66 3 127 7 135 9 8 2 31 8 50 12 102 23 238 127 274 210 36 82 41
105 40 196 0 106 -17 166 -64 235 -63 92 -152 148 -345 215 -235 82 -311 132
-335 221 -37 136 53 233 225 246 122 9 226 -26 318 -107 l48 -43 68 64 c38 35
69 69 70 75 2 22 -110 113 -182 149 -126 62 -284 80 -425 49z"/>
<path d="M35145 10314 c-89 -21 -118 -31 -173 -57 -68 -33 -147 -109 -180
-173 -33 -64 -45 -153 -33 -239 26 -183 129 -275 421 -375 209 -72 285 -123
314 -207 28 -83 15 -152 -41 -214 -48 -53 -136 -81 -255 -80 -152 2 -252 43
-351 147 l-45 47 -77 -69 -77 -69 79 -76 c134 -129 266 -179 473 -179 132 0
215 18 307 65 93 47 161 120 194 207 34 90 34 226 -1 318 -46 124 -175 222
-380 289 -250 82 -329 139 -346 249 -14 93 49 178 153 208 130 38 289 0 395
-95 l48 -43 74 69 75 68 -45 46 c-57 58 -150 114 -234 140 -63 20 -249 34
-295 23z"/>
<path d="M42228 10310 c-239 -41 -385 -203 -374 -418 6 -128 28 -184 99 -256
42 -42 164 -108 267 -145 239 -86 309 -123 351 -188 24 -39 29 -57 29 -111 0
-77 -19 -122 -69 -161 -53 -42 -131 -63 -232 -61 -158 1 -268 47 -358 147
l-47 53 -74 -75 -74 -74 73 -70 c134 -131 293 -187 504 -178 62 2 126 7 142
11 153 35 262 110 314 219 37 76 44 110 43 213 -1 139 -58 247 -170 322 -61
41 -144 82 -165 82 -7 0 -17 4 -22 9 -6 5 -41 19 -78 30 -181 55 -298 136
-313 216 -18 96 19 170 104 212 51 25 67 28 157 27 123 0 189 -23 277 -96 l60
-51 71 71 71 71 -24 27 c-67 71 -215 153 -305 169 -65 11 -206 13 -257 5z"/>
<path d="M28964 10287 c-3 -8 -4 -52 -2 -98 l3 -84 263 0 262 0 0 -657 0 -658
110 0 110 0 -2 655 -3 655 240 1 c132 1 250 1 263 2 21 0 22 3 22 98 l0 98
-630 1 c-516 0 -632 -2 -636 -13z"/>
<path d="M36025 10271 c-70 -31 -99 -114 -65 -181 53 -104 207 -84 242 31 20
69 -38 146 -118 155 -21 2 -48 0 -59 -5z"/>
<path d="M46825 10265 c-63 -33 -88 -102 -61 -167 22 -51 57 -72 122 -73 45 0
57 4 83 29 50 48 60 110 26 162 -35 55 -115 77 -170 49z"/>
<path d="M27960 10035 l0 -215 -135 0 -135 0 0 -90 0 -90 135 0 135 0 0 -425
0 -425 105 0 105 0 0 425 0 425 130 0 131 0 -2 90 -3 90 -128 0 -128 0 0 215
0 215 -105 0 -105 0 0 -215z"/>
<path d="M46120 10035 l0 -215 -130 0 -130 0 0 -90 0 -90 130 0 130 0 0 -425
0 -425 105 0 105 0 0 425 0 425 130 0 130 0 0 90 0 90 -130 0 -130 0 0 215 0
215 -105 0 -105 0 0 -215z"/>
<path d="M24140 9839 c-69 -12 -145 -47 -193 -89 l-37 -32 0 51 0 51 -105 0
-105 0 0 -515 0 -515 105 0 105 0 0 343 0 343 25 50 c85 169 379 169 456 0 17
-37 19 -72 19 -388 l0 -348 105 0 105 0 1 333 c0 182 2 342 5 355 12 64 88
144 155 162 110 30 223 6 286 -61 60 -63 63 -86 63 -455 l0 -334 106 0 106 0
-4 378 c-4 369 -5 378 -28 436 -67 166 -254 264 -450 236 -93 -13 -171 -51
-238 -115 l-53 -53 -44 47 c-56 60 -126 98 -212 116 -76 16 -94 17 -173 4z"/>
<path d="M25980 9839 c-179 -26 -325 -142 -403 -321 -31 -71 -32 -77 -32 -213
0 -134 2 -143 31 -211 92 -213 276 -332 497 -321 51 2 102 7 115 10 54 14 134
58 176 97 l46 43 0 -67 0 -66 105 0 105 0 0 515 -1 515 -104 0 -105 0 0 -67 0
-67 -42 40 c-101 96 -236 135 -388 113z m172 -193 c99 -12 182 -74 234 -176
26 -50 28 -64 28 -165 1 -123 -13 -166 -80 -243 -101 -118 -333 -134 -457 -32
-117 98 -157 275 -94 425 36 89 144 178 232 192 16 3 31 6 33 8 2 2 15 2 30 0
15 -2 48 -6 74 -9z"/>
<path d="M27310 9836 c-68 -15 -110 -37 -161 -83 l-39 -35 0 51 0 51 -105 0
-104 0 -1 -515 0 -515 104 0 105 0 3 343 c3 324 4 344 24 387 62 132 243 176
365 89 l33 -23 63 69 63 69 -31 32 c-68 70 -209 105 -319 80z"/>
<path d="M30539 9840 c-126 -20 -237 -78 -321 -168 -80 -86 -123 -176 -138
-294 -34 -274 138 -523 410 -593 65 -17 214 -17 300 0 62 12 174 71 225 118
l50 46 -66 66 -66 67 -34 -31 c-78 -72 -214 -105 -340 -83 -119 20 -198 81
-245 189 -13 30 -24 58 -24 63 0 6 153 10 414 10 l415 0 7 45 c6 44 2 124 -11
195 -17 99 -116 237 -215 300 -94 60 -240 89 -361 70z m230 -215 c60 -30 105
-78 130 -138 40 -94 64 -87 -294 -87 -216 0 -315 3 -315 11 0 5 11 34 25 63
43 92 124 154 226 176 67 14 176 2 228 -25z"/>
<path d="M31739 9839 c-119 -17 -222 -68 -307 -150 -61 -58 -121 -154 -138
-219 -2 -8 -8 -33 -13 -55 -28 -109 3 -279 70 -390 38 -64 118 -142 187 -182
25 -15 81 -37 125 -50 186 -54 405 -9 533 109 l45 41 -67 68 -67 68 -34 -29
c-63 -56 -108 -72 -236 -84 -85 -8 -201 37 -260 103 -45 50 -61 82 -79 151
-41 167 32 329 180 398 49 23 70 27 152 27 83 0 102 -4 155 -28 33 -16 72 -40
87 -54 l27 -26 48 41 c26 22 58 51 71 65 l23 24 -52 47 c-52 47 -150 100 -204
111 -134 27 -154 28 -246 14z"/>
<path d="M36912 9839 c-68 -12 -136 -42 -189 -85 -23 -19 -43 -34 -45 -34 -2
0 -3 21 -3 47 l0 48 -102 3 -103 3 0 -516 0 -515 105 0 106 0 -1 328 c-1 218
2 343 10 371 14 54 72 118 128 142 90 39 233 20 296 -39 64 -60 66 -71 66
-454 l0 -348 110 0 110 0 0 349 c-1 332 0 352 19 389 25 49 80 95 130 111 55
16 165 14 209 -5 20 -8 52 -29 70 -47 68 -65 67 -56 70 -444 l3 -353 105 0
105 0 -1 353 c-2 380 -7 431 -53 510 -81 138 -259 215 -432 187 -91 -15 -168
-52 -233 -115 l-54 -53 -41 45 c-92 100 -239 147 -385 122z"/>
<path d="M38860 9839 c-91 -13 -165 -46 -225 -101 l-55 -50 0 66 0 66 -105 0
-104 0 -1 -730 0 -730 105 0 105 0 0 281 0 282 44 -41 c81 -74 184 -112 307
-112 205 0 368 100 463 285 38 73 56 155 56 253 0 159 -49 280 -158 388 -116
117 -268 167 -432 143z m167 -205 c133 -54 211 -175 211 -325 0 -143 -74 -268
-190 -320 -79 -35 -212 -34 -289 2 -72 34 -133 98 -161 169 -31 79 -30 225 1
295 42 93 100 149 188 181 48 17 196 16 240 -2z"/>
<path d="M40564 9840 c-215 -33 -389 -185 -449 -394 -13 -44 -16 -82 -12 -155
6 -122 11 -142 49 -221 64 -132 229 -259 376 -289 133 -27 298 -5 412 55 59
31 140 96 140 112 0 3 -28 34 -61 68 l-61 62 -52 -39 c-75 -57 -132 -74 -251
-73 -108 0 -159 16 -229 69 -41 32 -90 105 -104 158 l-10 37 413 0 c321 0 414
3 418 13 11 30 7 177 -7 230 -32 122 -120 243 -219 301 -94 55 -243 83 -353
66z m217 -208 c79 -34 139 -110 160 -199 l7 -33 -318 0 -318 0 14 46 c15 50
22 61 68 112 41 45 82 69 147 87 70 19 179 13 240 -13z"/>
<path d="M43480 9843 c-136 -18 -239 -65 -327 -147 -114 -105 -168 -225 -172
-378 -4 -149 50 -280 160 -390 108 -107 236 -158 397 -158 197 1 370 93 474
255 62 94 81 175 76 308 -4 99 -8 120 -36 180 -72 155 -186 257 -342 306 -62
19 -177 32 -230 24z m192 -220 c104 -41 187 -149 204 -265 10 -78 -13 -181
-55 -244 -78 -116 -199 -166 -345 -143 -171 28 -280 161 -277 339 1 41 8 95
16 120 33 99 118 177 224 207 60 17 173 10 233 -14z"/>
<path d="M47654 9836 c-113 -21 -197 -67 -285 -155 -113 -113 -155 -208 -158
-361 -4 -154 48 -281 158 -391 105 -104 226 -154 384 -158 104 -2 173 12 264
55 269 128 382 460 247 727 -39 76 -164 197 -244 235 -112 53 -245 71 -366 48z
m259 -219 c104 -48 165 -127 186 -243 13 -70 10 -113 -15 -191 -29 -92 -133
-188 -228 -210 -45 -10 -173 -3 -215 11 -121 43 -205 158 -217 296 -4 44 16
151 36 190 42 82 114 140 209 167 67 19 179 10 244 -20z"/>
<path d="M49000 9840 c-64 -11 -157 -55 -210 -99 l-45 -38 1 59 1 58 -104 0
-103 0 0 -515 0 -515 105 0 104 0 3 343 c3 328 4 344 25 382 55 102 159 151
290 134 105 -13 191 -90 212 -189 7 -31 11 -175 11 -360 l0 -310 105 0 105 0
0 335 c0 209 -4 354 -11 387 -35 165 -177 301 -339 326 -76 11 -90 11 -150 2z"/>
<path d="M50016 9839 c-112 -16 -202 -72 -253 -157 -26 -43 -28 -55 -28 -142
1 -109 11 -136 76 -194 50 -46 105 -71 264 -120 184 -58 220 -85 218 -162 -4
-141 -309 -149 -456 -11 l-37 35 -68 -64 -67 -64 51 -48 c60 -56 174 -114 261
-132 91 -18 243 -9 318 20 78 30 168 117 186 181 17 55 17 162 0 211 -16 49
-86 120 -147 151 -27 14 -105 41 -174 62 -182 54 -230 84 -230 142 0 73 63
112 179 111 90 -1 166 -30 221 -83 l36 -35 67 68 68 68 -49 46 c-106 99 -266
142 -436 117z"/>
<path d="M35970 9305 l0 -515 105 0 105 0 0 515 -1 515 -104 0 -105 0 0 -515z"/>
<path d="M44782 9463 l3 -358 29 -68 c50 -120 151 -210 278 -248 55 -17 86
-20 160 -16 113 5 136 10 207 45 118 58 211 191 231 333 6 40 10 207 10 371
l-1 298 -104 0 -103 0 -4 -337 -4 -338 -26 -50 c-48 -93 -108 -127 -221 -127
-57 0 -80 5 -126 29 -49 25 -60 36 -89 93 l-32 65 -1 333 -1 332 -104 0 -105
0 3 -357z"/>
<path d="M46780 9305 l0 -515 105 0 106 0 -1 515 -1 515 -105 0 -104 0 0 -515z"/>
<path d="M33762 9039 c-53 -26 -74 -61 -78 -123 -3 -60 17 -101 61 -123 17 -9
32 -17 33 -18 2 -2 -7 -23 -21 -47 -13 -24 -40 -73 -60 -109 l-35 -65 62 -31
62 -31 93 170 c79 143 94 179 98 227 4 41 1 66 -11 88 -36 71 -129 99 -204 62z"/>
</g>
</svg>
