<?xml version="1.0" encoding="UTF-8"?>
<!DOCTYPE svg PUBLIC "-//W3C//DTD SVG 1.1//EN" "http://www.w3.org/Graphics/SVG/1.1/DTD/svg11.dtd">
<svg xmlns="http://www.w3.org/2000/svg" version="1.1" width="7500px" height="5000px" style="shape-rendering:geometricPrecision; text-rendering:geometricPrecision; image-rendering:optimizeQuality; fill-rule:evenodd; clip-rule:evenodd" xmlns:xlink="http://www.w3.org/1999/xlink">
<g><path style="opacity:0.482" fill="#fefefe" d="M -0.5,-0.5 C 2499.5,-0.5 4999.5,-0.5 7499.5,-0.5C 7499.5,1666.17 7499.5,3332.83 7499.5,4999.5C 4999.5,4999.5 2499.5,4999.5 -0.5,4999.5C -0.5,3332.83 -0.5,1666.17 -0.5,-0.5 Z"/></g>
<g><path style="opacity:1" fill="#4297f2" d="M 3559.5,248.5 C 3556.93,249.484 3556.93,250.651 3559.5,252C 3556.83,252.667 3556.83,253.333 3559.5,254C 3558.83,254.333 3558.17,254.667 3557.5,255C 3558.17,335.5 3558.83,416 3559.5,496.5C 3508.11,495.87 3466.11,515.203 3433.5,554.5C 3430.83,553.12 3428.33,553.453 3426,555.5C 3424,554.5 3424,553.5 3426,552.5C 3426.17,458.597 3426.67,364.763 3427.5,271C 3427.27,270.601 3426.94,270.435 3426.5,270.5C 3426.61,269.883 3426.94,269.383 3427.5,269C 3470.49,254.667 3514.49,247.834 3559.5,248.5 Z"/></g>
<g><path style="opacity:1" fill="#3b93f0" d="M 3559.5,248.5 C 3612.66,249.363 3663,261.03 3710.5,283.5C 3710.19,284.478 3709.52,285.145 3708.5,285.5C 3705.61,284.209 3702.94,284.709 3700.5,287C 3701.5,389.096 3701.83,491.263 3701.5,593.5C 3699.9,593.312 3698.56,593.812 3697.5,595C 3699.11,596.07 3700.45,597.57 3701.5,599.5C 3701.31,601.07 3701.31,602.57 3701.5,604C 3700.03,604.71 3699.36,605.876 3699.5,607.5C 3675.9,541.581 3629.23,504.581 3559.5,496.5C 3558.83,416 3558.17,335.5 3557.5,255C 3558.17,254.667 3558.83,254.333 3559.5,254C 3556.83,253.333 3556.83,252.667 3559.5,252C 3556.93,250.651 3556.93,249.484 3559.5,248.5 Z"/></g>
<g><path style="opacity:1" fill="#4599f3" d="M 3426.5,270.5 C 3426.94,270.435 3427.27,270.601 3427.5,271C 3426.67,364.763 3426.17,458.597 3426,552.5C 3424,553.5 3424,554.5 3426,555.5C 3428.33,553.453 3430.83,553.12 3433.5,554.5C 3394.77,606.631 3386.93,663.297 3410,724.5C 3416.42,739.03 3424.59,752.364 3434.5,764.5C 3432.04,764.792 3429.38,764.792 3426.5,764.5C 3426.5,856.5 3426.5,948.5 3426.5,1040.5C 3428.1,1040.31 3429.44,1040.81 3430.5,1042C 3428.87,1041.8 3427.21,1041.8 3425.5,1042C 3427.48,1043.81 3428.82,1045.97 3429.5,1048.5C 3414.24,1043.86 3399.58,1037.86 3385.5,1030.5C 3385.58,1029.25 3386.24,1028.42 3387.5,1028C 3385.78,1027.26 3384.11,1026.43 3382.5,1025.5C 3383.27,1024.29 3384.11,1024.29 3385,1025.5C 3385.5,781.5 3385.67,537.5 3385.5,293.5C 3384.45,293.649 3383.45,293.483 3382.5,293C 3384.59,291.959 3386.25,290.459 3387.5,288.5C 3386.64,287.707 3385.81,288.04 3385,289.5C 3384.54,288.906 3384.37,288.239 3384.5,287.5C 3398.04,280.653 3412.04,274.987 3426.5,270.5 Z"/></g>
<g><path style="opacity:1" fill="#3891ee" d="M 3710.5,283.5 C 3721.28,288.056 3731.61,293.39 3741.5,299.5C 3738.48,299.947 3738.14,300.78 3740.5,302C 3740.17,302.333 3739.83,302.667 3739.5,303C 3738.18,302.852 3737.01,303.018 3736,303.5C 3736.16,541.307 3735.33,778.974 3733.5,1016.5C 3736.63,1015.52 3739.96,1015.52 3743.5,1016.5C 3743.34,1014.8 3743.51,1013.13 3744,1011.5C 3745.32,1014.03 3746.48,1014.03 3747.5,1011.5C 3748.45,1012.33 3749.45,1012.49 3750.5,1012C 3749.35,1011.09 3749.51,1010.25 3751,1009.5C 3752.02,1010.63 3752.68,1010.3 3753,1008.5C 3753.72,1009.04 3754.22,1009.71 3754.5,1010.5C 3738.51,1021.33 3721.51,1030.33 3703.5,1037.5C 3702.37,1036.88 3701.37,1036.04 3700.5,1035C 3701.33,931.903 3701.83,828.737 3702,725.5C 3702.5,725 3703,724.5 3703.5,724C 3701.95,722.56 3701.12,720.727 3701,718.5C 3699.7,717.915 3698.53,717.249 3697.5,716.5C 3709.35,680.225 3710.02,643.892 3699.5,607.5C 3699.36,605.876 3700.03,604.71 3701.5,604C 3701.31,602.57 3701.31,601.07 3701.5,599.5C 3700.45,597.57 3699.11,596.07 3697.5,595C 3698.56,593.812 3699.9,593.312 3701.5,593.5C 3701.83,491.263 3701.5,389.096 3700.5,287C 3702.94,284.709 3705.61,284.209 3708.5,285.5C 3709.52,285.145 3710.19,284.478 3710.5,283.5 Z"/></g>
<g><path style="opacity:1" fill="#479bf4" d="M 3384.5,287.5 C 3384.37,288.239 3384.54,288.906 3385,289.5C 3385.81,288.04 3386.64,287.707 3387.5,288.5C 3386.25,290.459 3384.59,291.959 3382.5,293C 3383.45,293.483 3384.45,293.649 3385.5,293.5C 3385.67,537.5 3385.5,781.5 3385,1025.5C 3384.11,1024.29 3383.27,1024.29 3382.5,1025.5C 3384.11,1026.43 3385.78,1027.26 3387.5,1028C 3386.24,1028.42 3385.58,1029.25 3385.5,1030.5C 3380.95,1028.31 3376.45,1025.97 3372,1023.5C 3357.97,1038.37 3343.8,1053.03 3329.5,1067.5C 3327.43,1067.45 3325.6,1068.12 3324,1069.5C 3322.13,1068.29 3320.63,1068.79 3319.5,1071C 3316.85,1071.45 3314.35,1072.29 3312,1073.5C 3311.83,1073.17 3311.67,1072.83 3311.5,1072.5C 3313.16,826.639 3314.16,580.639 3314.5,334.5C 3316.59,332.753 3318.26,330.753 3319.5,328.5C 3339.64,312.585 3361.31,298.918 3384.5,287.5 Z"/></g>
<g><path style="opacity:1" fill="#348eee" d="M 3741.5,299.5 C 3791.06,328.053 3832.39,365.72 3865.5,412.5C 3865.62,414.734 3865.29,416.901 3864.5,419C 3865.51,420.168 3866.51,421.335 3867.5,422.5C 3866.5,580.793 3866.17,739.126 3866.5,897.5C 3868.22,897.371 3869.88,897.038 3871.5,896.5C 3863.63,908.55 3855.13,920.217 3846,931.5C 3819.22,962.47 3788.72,988.804 3754.5,1010.5C 3754.22,1009.71 3753.72,1009.04 3753,1008.5C 3752.68,1010.3 3752.02,1010.63 3751,1009.5C 3749.51,1010.25 3749.35,1011.09 3750.5,1012C 3749.45,1012.49 3748.45,1012.33 3747.5,1011.5C 3746.48,1014.03 3745.32,1014.03 3744,1011.5C 3743.51,1013.13 3743.34,1014.8 3743.5,1016.5C 3739.96,1015.52 3736.63,1015.52 3733.5,1016.5C 3735.33,778.974 3736.16,541.307 3736,303.5C 3737.01,303.018 3738.18,302.852 3739.5,303C 3739.83,302.667 3740.17,302.333 3740.5,302C 3738.14,300.78 3738.48,299.947 3741.5,299.5 Z"/></g>
<g><path style="opacity:1" fill="#499df5" d="M 3319.5,328.5 C 3318.26,330.753 3316.59,332.753 3314.5,334.5C 3314.16,580.639 3313.16,826.639 3311.5,1072.5C 3311.67,1072.83 3311.83,1073.17 3312,1073.5C 3314.35,1072.29 3316.85,1071.45 3319.5,1071C 3320.63,1068.79 3322.13,1068.29 3324,1069.5C 3325.6,1068.12 3327.43,1067.45 3329.5,1067.5C 3309.83,1088.17 3290.17,1108.83 3270.5,1129.5C 3268.32,1129.41 3266.32,1128.75 3264.5,1127.5C 3263.83,878.879 3263.16,630.546 3262.5,382.5C 3279.61,362.39 3298.61,344.39 3319.5,328.5 Z"/></g>
<g><path style="opacity:1" fill="#4f9ff5" d="M 3262.5,382.5 C 3263.16,630.546 3263.83,878.879 3264.5,1127.5C 3266.32,1128.75 3268.32,1129.41 3270.5,1129.5C 3227.04,1175.46 3183.37,1221.3 3139.5,1267C 3176.97,1342.51 3190.8,1422.35 3181,1506.5C 3174.7,1554.76 3160.86,1600.6 3139.5,1644C 3173.86,1679.36 3207.86,1715.03 3241.5,1751C 3242.5,1751.67 3243.5,1751.67 3244.5,1751C 3250.36,1746.91 3256.36,1743.07 3262.5,1739.5C 3263.5,1847.46 3263.83,1955.46 3263.5,2063.5C 3265.12,2063.36 3266.29,2064.03 3267,2065.5C 3267.76,2062.94 3268.26,2062.94 3268.5,2065.5C 3268.33,2066.17 3268.17,2066.83 3268,2067.5C 3265.06,2066.31 3263.73,2067.31 3264,2070.5C 3265.49,2069.27 3266.99,2069.27 3268.5,2070.5C 3222.12,2161.6 3217.28,2254.94 3254,2350.5C 3259.65,2363.14 3265.82,2375.47 3272.5,2387.5C 3269.58,2387.38 3266.58,2387.72 3263.5,2388.5C 3263.82,2496.05 3263.48,2603.38 3262.5,2710.5C 3263.61,2711.27 3264.28,2712.27 3264.5,2713.5C 3213.93,2684.28 3169.59,2647.28 3131.5,2602.5C 3133.98,2598.98 3133.48,2595.65 3130,2592.5C 3129.5,2037.17 3129.33,1481.83 3129.5,926.5C 3154.34,900.159 3179.01,873.659 3203.5,847C 3156.24,748.426 3147.07,646.259 3176,540.5C 3193.17,481.142 3222,428.476 3262.5,382.5 Z"/></g>
<g><path style="opacity:1" fill="#308cec" d="M 3865.5,412.5 C 3889.58,444.661 3907.92,479.995 3920.5,518.5C 3919.18,517.047 3918.34,517.381 3918,519.5C 3917.17,612.835 3917.33,706.168 3918.5,799.5C 3919.18,799.137 3919.85,798.804 3920.5,798.5C 3909.47,833.9 3893.13,866.567 3871.5,896.5C 3869.88,897.038 3868.22,897.371 3866.5,897.5C 3866.17,739.126 3866.5,580.793 3867.5,422.5C 3866.51,421.335 3865.51,420.168 3864.5,419C 3865.29,416.901 3865.62,414.734 3865.5,412.5 Z"/></g>
<g><path style="opacity:1" fill="#fefefe" d="M 3559.5,496.5 C 3629.23,504.581 3675.9,541.581 3699.5,607.5C 3710.02,643.892 3709.35,680.225 3697.5,716.5C 3672.4,778.258 3626.73,813.258 3560.5,821.5C 3509.37,822.144 3467.37,803.144 3434.5,764.5C 3424.59,752.364 3416.42,739.03 3410,724.5C 3386.93,663.297 3394.77,606.631 3433.5,554.5C 3466.11,515.203 3508.11,495.87 3559.5,496.5 Z"/></g>
<g><path style="opacity:1" fill="#318bed" d="M 3920.5,518.5 C 3941.17,576.717 3948.67,636.717 3943,698.5C 3940.13,733.018 3932.63,766.351 3920.5,798.5C 3919.85,798.804 3919.18,799.137 3918.5,799.5C 3917.33,706.168 3917.17,612.835 3918,519.5C 3918.34,517.381 3919.18,517.047 3920.5,518.5 Z"/></g>
<g><path style="opacity:1" fill="#1177e5" d="M 4597.5,680.5 C 4620.08,680.279 4642.42,681.612 4664.5,684.5C 4663,684.415 4662,685.081 4661.5,686.5C 4662.16,728.126 4662.5,769.793 4662.5,811.5C 4662.49,853.378 4661.83,895.045 4660.5,936.5C 4648,933.25 4635.33,930.75 4622.5,929C 4609.05,928.051 4595.72,928.884 4582.5,931.5C 4582.5,930.5 4582.5,929.5 4582.5,928.5C 4583.82,928.67 4584.99,928.337 4586,927.5C 4586.33,847.167 4586.67,766.833 4587,686.5C 4587.4,685.128 4587.9,683.795 4588.5,682.5C 4591.64,681.833 4594.64,681.166 4597.5,680.5 Z"/></g>
<g><path style="opacity:1" fill="#157ae5" d="M 4597.5,680.5 C 4594.64,681.166 4591.64,681.833 4588.5,682.5C 4587.9,683.795 4587.4,685.128 4587,686.5C 4586.67,766.833 4586.33,847.167 4586,927.5C 4584.99,928.337 4583.82,928.67 4582.5,928.5C 4582.5,929.5 4582.5,930.5 4582.5,931.5C 4526.95,944.866 4488.45,978.199 4467,1031.5C 4444.54,1099.57 4457.71,1159.41 4506.5,1211C 4527.17,1230.17 4551.17,1243.34 4578.5,1250.5C 4581.3,1251.41 4583.63,1253.08 4585.5,1255.5C 4586.5,1254.17 4587.5,1254.17 4588.5,1255.5C 4589.49,1336.2 4589.83,1416.7 4589.5,1497C 4585.6,1496.39 4584.94,1497.56 4587.5,1500.5C 4538.4,1497.75 4491.73,1485.75 4447.5,1464.5C 4447.15,1462.46 4447.15,1460.63 4447.5,1459C 4445.31,1458.4 4445.15,1457.23 4447,1455.5C 4447.83,1211.46 4447.67,967.46 4446.5,723.5C 4447.37,721.55 4448.04,719.55 4448.5,717.5C 4495.54,695.152 4545.21,682.819 4597.5,680.5 Z"/></g>
<g><path style="opacity:1" fill="#0e75e4" d="M 4664.5,684.5 C 4681.82,686.764 4698.82,690.431 4715.5,695.5C 4715.61,696.117 4715.94,696.617 4716.5,697C 4713.69,697.779 4712.02,699.112 4711.5,701C 4712.49,789.487 4712.83,878.32 4712.5,967.5C 4696.68,954.59 4679.34,944.257 4660.5,936.5C 4661.83,895.045 4662.49,853.378 4662.5,811.5C 4662.5,769.793 4662.16,728.126 4661.5,686.5C 4662,685.081 4663,684.415 4664.5,684.5 Z"/></g>
<g><path style="opacity:1" fill="#0a73e2" d="M 4715.5,695.5 C 4770.34,711.248 4819.01,737.914 4861.5,775.5C 4858.85,776.476 4857.01,778.809 4856,782.5C 4855.5,988.166 4855.33,1193.83 4855.5,1399.5C 4856.55,1399.35 4857.55,1399.52 4858.5,1400C 4855.43,1401.57 4855.1,1403.4 4857.5,1405.5C 4856.97,1406.19 4856.31,1406.69 4855.5,1407C 4855.83,1407.33 4856.17,1407.67 4856.5,1408C 4853.8,1407 4851.3,1407.5 4849,1409.5C 4848.44,1407.4 4847.94,1407.24 4847.5,1409C 4847.91,1409.95 4848.57,1410.61 4849.5,1411C 4849.17,1411.33 4848.83,1411.67 4848.5,1412C 4849.77,1412.31 4850.93,1412.81 4852,1413.5C 4853.05,1411.89 4854.55,1411.23 4856.5,1411.5C 4816.51,1446.33 4770.84,1471 4719.5,1485.5C 4718.36,1482.57 4717.03,1482.24 4715.5,1484.5C 4714.3,1483.47 4712.97,1482.64 4711.5,1482C 4712.67,1481.58 4713.67,1480.91 4714.5,1480C 4713.17,1436.04 4712.5,1391.88 4712.5,1347.5C 4712.51,1302.79 4712.84,1258.13 4713.5,1213.5C 4748.27,1180.44 4765.94,1139.61 4766.5,1091C 4765.63,1042.2 4747.63,1001.03 4712.5,967.5C 4712.83,878.32 4712.49,789.487 4711.5,701C 4712.02,699.112 4713.69,697.779 4716.5,697C 4715.94,696.617 4715.61,696.117 4715.5,695.5 Z"/></g>
<g><path style="opacity:1" fill="#3b93f0" d="M 3697.5,716.5 C 3698.53,717.249 3699.7,717.915 3701,718.5C 3701.12,720.727 3701.95,722.56 3703.5,724C 3703,724.5 3702.5,725 3702,725.5C 3701.83,828.737 3701.33,931.903 3700.5,1035C 3701.37,1036.04 3702.37,1036.88 3703.5,1037.5C 3657.66,1058.37 3609.32,1069.04 3558.5,1069.5C 3558.85,1027.73 3558.85,985.561 3558.5,943C 3558.51,902.289 3559.17,861.789 3560.5,821.5C 3626.73,813.258 3672.4,778.258 3697.5,716.5 Z"/></g>
<g><path style="opacity:1" fill="#187de7" d="M 4448.5,717.5 C 4448.04,719.55 4447.37,721.55 4446.5,723.5C 4447.67,967.46 4447.83,1211.46 4447,1455.5C 4445.15,1457.23 4445.31,1458.4 4447.5,1459C 4447.15,1460.63 4447.15,1462.46 4447.5,1464.5C 4442.47,1461.32 4437.13,1458.65 4431.5,1456.5C 4427.51,1460.16 4423.51,1463.83 4419.5,1467.5C 4416.8,1467.62 4416.13,1466.62 4417.5,1464.5C 4416.17,1223.93 4414.83,983.432 4413.5,743C 4415.8,741.84 4415.46,740.84 4412.5,740C 4413.5,739.667 4414.5,739.333 4415.5,739C 4414.83,738.014 4414.83,736.847 4415.5,735.5C 4426.02,728.738 4437.02,722.738 4448.5,717.5 Z"/></g>
<g><path style="opacity:1" fill="#1b7ee6" d="M 4415.5,735.5 C 4414.83,736.847 4414.83,738.014 4415.5,739C 4414.5,739.333 4413.5,739.667 4412.5,740C 4415.46,740.84 4415.8,741.84 4413.5,743C 4414.83,983.432 4416.17,1223.93 4417.5,1464.5C 4416.13,1466.62 4416.8,1467.62 4419.5,1467.5C 4398.29,1490.59 4376.62,1513.26 4354.5,1535.5C 4353.88,1535.39 4353.38,1535.06 4353,1534.5C 4351.9,1536.39 4350.57,1537.06 4349,1536.5C 4348.83,1287.93 4348.33,1039.43 4347.5,791C 4350.17,790.333 4350.17,789.667 4347.5,789C 4348.45,788.517 4349.45,788.351 4350.5,788.5C 4350.5,787.5 4350.5,786.5 4350.5,785.5C 4370.14,766.181 4391.81,749.514 4415.5,735.5 Z"/></g>
<g><path style="opacity:1" fill="#4297f2" d="M 3434.5,764.5 C 3467.37,803.144 3509.37,822.144 3560.5,821.5C 3559.17,861.789 3558.51,902.289 3558.5,943C 3558.85,985.561 3558.85,1027.73 3558.5,1069.5C 3513.98,1070.69 3470.98,1063.69 3429.5,1048.5C 3428.82,1045.97 3427.48,1043.81 3425.5,1042C 3427.21,1041.8 3428.87,1041.8 3430.5,1042C 3429.44,1040.81 3428.1,1040.31 3426.5,1040.5C 3426.5,948.5 3426.5,856.5 3426.5,764.5C 3429.38,764.792 3432.04,764.792 3434.5,764.5 Z"/></g>
<g><path style="opacity:1" fill="#056fe1" d="M 4861.5,775.5 C 4891.83,801.324 4917.66,830.99 4939,864.5C 4998.77,963.778 5017.1,1070.44 4994,1184.5C 4973.1,1275.51 4927.26,1351.17 4856.5,1411.5C 4854.55,1411.23 4853.05,1411.89 4852,1413.5C 4850.93,1412.81 4849.77,1412.31 4848.5,1412C 4848.83,1411.67 4849.17,1411.33 4849.5,1411C 4848.57,1410.61 4847.91,1409.95 4847.5,1409C 4847.94,1407.24 4848.44,1407.4 4849,1409.5C 4851.3,1407.5 4853.8,1407 4856.5,1408C 4856.17,1407.67 4855.83,1407.33 4855.5,1407C 4856.31,1406.69 4856.97,1406.19 4857.5,1405.5C 4855.1,1403.4 4855.43,1401.57 4858.5,1400C 4857.55,1399.52 4856.55,1399.35 4855.5,1399.5C 4855.33,1193.83 4855.5,988.166 4856,782.5C 4857.01,778.809 4858.85,776.476 4861.5,775.5 Z"/></g>
<g><path style="opacity:1" fill="#1f80e8" d="M 4350.5,785.5 C 4350.5,786.5 4350.5,787.5 4350.5,788.5C 4349.45,788.351 4348.45,788.517 4347.5,789C 4350.17,789.667 4350.17,790.333 4347.5,791C 4348.33,1039.43 4348.83,1287.93 4349,1536.5C 4350.57,1537.06 4351.9,1536.39 4353,1534.5C 4353.38,1535.06 4353.88,1535.39 4354.5,1535.5C 4331.53,1560.8 4307.87,1585.47 4283.5,1609.5C 4282.5,1609.59 4281.67,1609.25 4281,1608.5C 4280.67,1609.17 4280.33,1609.83 4280,1610.5C 4277.79,1609.39 4275.96,1608.39 4274.5,1607.5C 4274.33,1367.5 4274.5,1127.5 4275,887.5C 4275.5,887 4276,886.5 4276.5,886C 4275.58,883.959 4275.24,881.792 4275.5,879.5C 4295.27,844.057 4320.27,812.723 4350.5,785.5 Z"/></g>
<g><path style="opacity:1" fill="#2181e8" d="M 4275.5,879.5 C 4275.24,881.792 4275.58,883.959 4276.5,886C 4276,886.5 4275.5,887 4275,887.5C 4274.5,1127.5 4274.33,1367.5 4274.5,1607.5C 4275.96,1608.39 4277.79,1609.39 4280,1610.5C 4280.33,1609.83 4280.67,1609.17 4281,1608.5C 4281.67,1609.25 4282.5,1609.59 4283.5,1609.5C 4268.17,1625.83 4252.83,1642.17 4237.5,1658.5C 4235.35,1657.3 4233.35,1656.47 4231.5,1656C 4232.17,1543.67 4232.83,1431.33 4233.5,1319C 4232.75,1317.51 4231.91,1317.35 4231,1318.5C 4229.96,1317.76 4229.46,1316.76 4229.5,1315.5C 4240.97,1303.87 4251.97,1291.87 4262.5,1279.5C 4218.94,1188.09 4208.11,1092.76 4230,993.5C 4239.78,953.265 4254.94,915.265 4275.5,879.5 Z"/></g>
<g><path style="opacity:1" fill="#52a2f6" d="M 3129.5,926.5 C 3129.33,1481.83 3129.5,2037.17 3130,2592.5C 3133.48,2595.65 3133.98,2598.98 3131.5,2602.5C 3120.06,2590.39 3109.72,2577.39 3100.5,2563.5C 3100.62,2561.52 3099.95,2559.85 3098.5,2558.5C 3099.71,2557.28 3099.71,2556.11 3098.5,2555C 3101.17,2554.33 3101.17,2553.67 3098.5,2553C 3099.5,2023.24 3099.83,1493.4 3099.5,963.5C 3097.62,963.771 3096.29,963.104 3095.5,961.5C 3106.13,949.198 3117.47,937.532 3129.5,926.5 Z"/></g>
<g><path style="opacity:1" fill="#fefefe" d="M 4660.5,936.5 C 4679.34,944.257 4696.68,954.59 4712.5,967.5C 4747.63,1001.03 4765.63,1042.2 4766.5,1091C 4765.94,1139.61 4748.27,1180.44 4713.5,1213.5C 4697.77,1227.88 4679.77,1238.55 4659.5,1245.5C 4632.99,1254.17 4605.99,1255.84 4578.5,1250.5C 4551.17,1243.34 4527.17,1230.17 4506.5,1211C 4457.71,1159.41 4444.54,1099.57 4467,1031.5C 4488.45,978.199 4526.95,944.866 4582.5,931.5C 4595.72,928.884 4609.05,928.051 4622.5,929C 4635.33,930.75 4648,933.25 4660.5,936.5 Z"/></g>
<g><path style="opacity:1" fill="#55a3f7" d="M 3095.5,961.5 C 3096.29,963.104 3097.62,963.771 3099.5,963.5C 3099.83,1493.4 3099.5,2023.24 3098.5,2553C 3101.17,2553.67 3101.17,2554.33 3098.5,2555C 3099.71,2556.11 3099.71,2557.28 3098.5,2558.5C 3099.95,2559.85 3100.62,2561.52 3100.5,2563.5C 3036.54,2473.75 3000.71,2373.41 2993,2262.5C 2986.4,2142.5 3013.56,2031 3074.5,1928C 3046.35,1898.51 3018.18,1869.01 2990,1839.5C 2989.54,1838.91 2989.37,1838.24 2989.5,1837.5C 2990.13,1837.12 2990.8,1836.79 2991.5,1836.5C 2990.25,1835 2989.25,1833.33 2988.5,1831.5C 2987.83,1580.26 2987.17,1329.1 2986.5,1078C 2987.17,1077.67 2987.83,1077.33 2988.5,1077C 2987.75,1076.33 2987.41,1075.5 2987.5,1074.5C 3023.53,1036.81 3059.53,999.14 3095.5,961.5 Z"/></g>
<g><path style="opacity:1" fill="#61acfa" d="M 2814.5,1045.5 C 2813.32,1045.28 2812.32,1045.61 2811.5,1046.5C 2813.16,1126.93 2814.16,1207.43 2814.5,1288C 2813.83,1289.67 2813.17,1291.33 2812.5,1293C 2814.57,1293.38 2816.07,1292.55 2817,1290.5C 2817.78,1292.25 2818.62,1293.92 2819.5,1295.5C 2788.76,1290.39 2759.09,1293.72 2730.5,1305.5C 2729.76,1305.63 2729.09,1305.46 2728.5,1305C 2730.33,1222.05 2731.16,1138.88 2731,1055.5C 2732,1055.17 2733,1054.83 2734,1054.5C 2735.33,1052.45 2735.5,1050.45 2734.5,1048.5C 2761.2,1044.64 2787.87,1043.64 2814.5,1045.5 Z"/></g>
<g><path style="opacity:1" fill="#5da9f9" d="M 2814.5,1045.5 C 2838.18,1046.57 2861.52,1050.07 2884.5,1056C 2890.14,1057.24 2895.48,1059.07 2900.5,1061.5C 2900.06,1061.43 2899.73,1061.6 2899.5,1062C 2901.6,1062.56 2901.76,1063.06 2900,1063.5C 2898.56,1062.85 2897.06,1062.52 2895.5,1062.5C 2895.67,1151.17 2895.5,1239.83 2895,1328.5C 2893.84,1327.01 2893.01,1327.17 2892.5,1329C 2893.51,1330.34 2894.51,1331.67 2895.5,1333C 2895.27,1333.4 2894.94,1333.57 2894.5,1333.5C 2872.95,1314.23 2847.95,1301.56 2819.5,1295.5C 2818.62,1293.92 2817.78,1292.25 2817,1290.5C 2816.07,1292.55 2814.57,1293.38 2812.5,1293C 2813.17,1291.33 2813.83,1289.67 2814.5,1288C 2814.16,1207.43 2813.16,1126.93 2811.5,1046.5C 2812.32,1045.61 2813.32,1045.28 2814.5,1045.5 Z"/></g>
<g><path style="opacity:1" fill="#65aefb" d="M 2734.5,1048.5 C 2735.5,1050.45 2735.33,1052.45 2734,1054.5C 2733,1054.83 2732,1055.17 2731,1055.5C 2731.16,1138.88 2730.33,1222.05 2728.5,1305C 2729.09,1305.46 2729.76,1305.63 2730.5,1305.5C 2669.81,1336.85 2638.47,1386.85 2636.5,1455.5C 2638.93,1524.42 2670.59,1574.42 2731.5,1605.5C 2730.67,1689.13 2730.17,1772.79 2730,1856.5C 2729.5,1857 2729,1857.5 2728.5,1858C 2730.06,1858.76 2731.06,1859.93 2731.5,1861.5C 2695.91,1855.72 2661.91,1845.05 2629.5,1829.5C 2629.5,1580.91 2629.5,1332.41 2629.5,1084C 2631.04,1082.63 2632.37,1081.13 2633.5,1079.5C 2665.53,1064.16 2699.19,1053.83 2734.5,1048.5 Z"/></g>
<g><path style="opacity:1" fill="#59a6f8" d="M 2900.5,1061.5 C 2925.17,1068.67 2948.83,1078.33 2971.5,1090.5C 2977.21,1085.45 2982.55,1080.12 2987.5,1074.5C 2987.41,1075.5 2987.75,1076.33 2988.5,1077C 2987.83,1077.33 2987.17,1077.67 2986.5,1078C 2987.17,1329.1 2987.83,1580.26 2988.5,1831.5C 2989.25,1833.33 2990.25,1835 2991.5,1836.5C 2990.8,1836.79 2990.13,1837.12 2989.5,1837.5C 2983.49,1831.66 2977.33,1825.99 2971,1820.5C 2946.36,1833.66 2920.53,1843.99 2893.5,1851.5C 2893.34,1850.13 2893.51,1848.79 2894,1847.5C 2894.33,1847.83 2894.67,1848.17 2895,1848.5C 2895.67,1759.17 2895.67,1669.83 2895,1580.5C 2894.67,1581.17 2894.33,1581.83 2894,1582.5C 2892.81,1581.44 2892.31,1580.1 2892.5,1578.5C 2942.44,1528.72 2957.6,1469.72 2938,1401.5C 2928.79,1375.41 2914.29,1352.74 2894.5,1333.5C 2894.94,1333.57 2895.27,1333.4 2895.5,1333C 2894.51,1331.67 2893.51,1330.34 2892.5,1329C 2893.01,1327.17 2893.84,1327.01 2895,1328.5C 2895.5,1239.83 2895.67,1151.17 2895.5,1062.5C 2897.06,1062.52 2898.56,1062.85 2900,1063.5C 2901.76,1063.06 2901.6,1062.56 2899.5,1062C 2899.73,1061.6 2900.06,1061.43 2900.5,1061.5 Z"/></g>
<g><path style="opacity:1" fill="#68b0fd" d="M 2633.5,1079.5 C 2632.37,1081.13 2631.04,1082.63 2629.5,1084C 2629.5,1332.41 2629.5,1580.91 2629.5,1829.5C 2591.61,1811.26 2557.61,1787.59 2527.5,1758.5C 2527.5,1556.17 2527.5,1353.83 2527.5,1151.5C 2558.72,1121.64 2594.05,1097.64 2633.5,1079.5 Z"/></g>
<g><path style="opacity:1" fill="#6eb3fe" d="M 2527.5,1151.5 C 2527.5,1353.83 2527.5,1556.17 2527.5,1758.5C 2463.21,1696.94 2422.71,1622.27 2406,1534.5C 2383.63,1400.27 2415.63,1281.27 2502,1177.5C 2510.01,1168.33 2518.51,1159.66 2527.5,1151.5 Z"/></g>
<g><path style="opacity:1" fill="#0e75e4" d="M 4713.5,1213.5 C 4712.84,1258.13 4712.51,1302.79 4712.5,1347.5C 4712.5,1391.88 4713.17,1436.04 4714.5,1480C 4713.67,1480.91 4712.67,1481.58 4711.5,1482C 4712.97,1482.64 4714.3,1483.47 4715.5,1484.5C 4717.03,1482.24 4718.36,1482.57 4719.5,1485.5C 4711.53,1488.75 4703.19,1491.25 4694.5,1493C 4684.13,1494.77 4673.8,1496.61 4663.5,1498.5C 4662.67,1414.87 4662.17,1331.21 4662,1247.5C 4661.01,1246.93 4660.17,1246.27 4659.5,1245.5C 4679.77,1238.55 4697.77,1227.88 4713.5,1213.5 Z"/></g>
<g><path style="opacity:1" fill="#1177e5" d="M 4659.5,1245.5 C 4660.17,1246.27 4661.01,1246.93 4662,1247.5C 4662.17,1331.21 4662.67,1414.87 4663.5,1498.5C 4638.08,1501.45 4612.75,1502.11 4587.5,1500.5C 4584.94,1497.56 4585.6,1496.39 4589.5,1497C 4589.83,1416.7 4589.49,1336.2 4588.5,1255.5C 4587.5,1254.17 4586.5,1254.17 4585.5,1255.5C 4583.63,1253.08 4581.3,1251.41 4578.5,1250.5C 4605.99,1255.84 4632.99,1254.17 4659.5,1245.5 Z"/></g>
<g><path style="opacity:1" fill="#fefefe" d="M 2819.5,1295.5 C 2847.95,1301.56 2872.95,1314.23 2894.5,1333.5C 2914.29,1352.74 2928.79,1375.41 2938,1401.5C 2957.6,1469.72 2942.44,1528.72 2892.5,1578.5C 2870.42,1598.04 2844.75,1610.37 2815.5,1615.5C 2786.42,1619.8 2758.42,1616.46 2731.5,1605.5C 2670.59,1574.42 2638.93,1524.42 2636.5,1455.5C 2638.47,1386.85 2669.81,1336.85 2730.5,1305.5C 2759.09,1293.72 2788.76,1290.39 2819.5,1295.5 Z"/></g>
<g><path style="opacity:1" fill="#2384ea" d="M 4229.5,1315.5 C 4229.46,1316.76 4229.96,1317.76 4231,1318.5C 4231.91,1317.35 4232.75,1317.51 4233.5,1319C 4232.83,1431.33 4232.17,1543.67 4231.5,1656C 4233.35,1656.47 4235.35,1657.3 4237.5,1658.5C 4202.5,1695.5 4167.17,1732.16 4131.5,1768.5C 4130.5,1768.66 4129.5,1768.16 4128.5,1767C 4129.31,1766.69 4129.97,1766.19 4130.5,1765.5C 4129.69,1764.19 4128.69,1763.02 4127.5,1762C 4128.45,1761.52 4129.45,1761.35 4130.5,1761.5C 4130.33,1648.83 4130.5,1536.17 4131,1423.5C 4134.35,1422.94 4134.19,1421.61 4130.5,1419.5C 4163.53,1384.81 4196.53,1350.14 4229.5,1315.5 Z"/></g>
<g><path style="opacity:1" fill="#2887eb" d="M 4130.5,1419.5 C 4134.19,1421.61 4134.35,1422.94 4131,1423.5C 4130.5,1536.17 4130.33,1648.83 4130.5,1761.5C 4129.45,1761.35 4128.45,1761.52 4127.5,1762C 4128.69,1763.02 4129.69,1764.19 4130.5,1765.5C 4129.97,1766.19 4129.31,1766.69 4128.5,1767C 4129.5,1768.16 4130.5,1768.66 4131.5,1768.5C 4090.17,1812.5 4048.5,1856.16 4006.5,1899.5C 4006.22,1897.24 4005.22,1896.91 4003.5,1898.5C 4002.42,1899.67 4001.58,1901 4001,1902.5C 4000.31,1901.97 3999.81,1901.31 3999.5,1900.5C 3999.5,1788.97 3999.5,1677.47 3999.5,1566C 3997.01,1565.37 3997.01,1564.54 3999.5,1563.5C 3998.53,1562.04 3998.86,1560.7 4000.5,1559.5C 4002.42,1559.13 4004.42,1558.97 4006.5,1559C 4004.64,1557.63 4002.97,1556.13 4001.5,1554.5C 4044.16,1509.17 4087.16,1464.17 4130.5,1419.5 Z"/></g>
<g><path style="opacity:1" fill="#2d89ec" d="M 4001.5,1554.5 C 4002.97,1556.13 4004.64,1557.63 4006.5,1559C 4004.42,1558.97 4002.42,1559.13 4000.5,1559.5C 3998.86,1560.7 3998.53,1562.04 3999.5,1563.5C 3997.01,1564.54 3997.01,1565.37 3999.5,1566C 3999.5,1677.47 3999.5,1788.97 3999.5,1900.5C 3999.81,1901.31 4000.31,1901.97 4001,1902.5C 4001.58,1901 4002.42,1899.67 4003.5,1898.5C 4005.22,1896.91 4006.22,1897.24 4006.5,1899.5C 3998.04,1909.13 3989.37,1918.63 3980.5,1928C 4062.19,2068.18 4083.36,2217.35 4044,2375.5C 4020.45,2463.27 3978.62,2540.94 3918.5,2608.5C 3918.17,2289.63 3917.17,1970.79 3915.5,1652C 3916.94,1651.78 3918.27,1651.28 3919.5,1650.5C 3918.38,1649.4 3918.38,1648.23 3919.5,1647C 3919.02,1645.36 3918.02,1644.19 3916.5,1643.5C 3944.5,1613.5 3972.83,1583.84 4001.5,1554.5 Z"/></g>
<g><path style="opacity:1" fill="#61acfa" d="M 2731.5,1605.5 C 2758.42,1616.46 2786.42,1619.8 2815.5,1615.5C 2814.62,1617.08 2813.78,1618.75 2813,1620.5C 2811.95,1619.48 2810.78,1619.32 2809.5,1620C 2810.93,1620.47 2812.1,1621.3 2813,1622.5C 2813.5,1702.83 2813.67,1783.17 2813.5,1863.5C 2816.46,1864.16 2819.46,1864.49 2822.5,1864.5C 2801.67,1865.66 2780.67,1865.83 2759.5,1865C 2750.12,1864.09 2740.79,1862.92 2731.5,1861.5C 2731.06,1859.93 2730.06,1858.76 2728.5,1858C 2729,1857.5 2729.5,1857 2730,1856.5C 2730.17,1772.79 2730.67,1689.13 2731.5,1605.5 Z"/></g>
<g><path style="opacity:1" fill="#5da9f9" d="M 2892.5,1578.5 C 2892.31,1580.1 2892.81,1581.44 2894,1582.5C 2894.33,1581.83 2894.67,1581.17 2895,1580.5C 2895.67,1669.83 2895.67,1759.17 2895,1848.5C 2894.67,1848.17 2894.33,1847.83 2894,1847.5C 2893.51,1848.79 2893.34,1850.13 2893.5,1851.5C 2870.51,1858.72 2846.84,1863.06 2822.5,1864.5C 2819.46,1864.49 2816.46,1864.16 2813.5,1863.5C 2813.67,1783.17 2813.5,1702.83 2813,1622.5C 2812.1,1621.3 2810.93,1620.47 2809.5,1620C 2810.78,1619.32 2811.95,1619.48 2813,1620.5C 2813.78,1618.75 2814.62,1617.08 2815.5,1615.5C 2844.75,1610.37 2870.42,1598.04 2892.5,1578.5 Z"/></g>
<g><path style="opacity:1" fill="#308cec" d="M 3916.5,1643.5 C 3918.02,1644.19 3919.02,1645.36 3919.5,1647C 3918.38,1648.23 3918.38,1649.4 3919.5,1650.5C 3918.27,1651.28 3916.94,1651.78 3915.5,1652C 3917.17,1970.79 3918.17,2289.63 3918.5,2608.5C 3902.8,2626.53 3885.8,2643.2 3867.5,2658.5C 3866.67,2339.54 3866.17,2020.54 3866,1701.5C 3865.35,1702.7 3864.85,1702.7 3864.5,1701.5C 3865.42,1698.89 3866.75,1696.22 3868.5,1693.5C 3884.16,1676.5 3900.16,1659.84 3916.5,1643.5 Z"/></g>
<g><path style="opacity:1" fill="#4297f2" d="M 3560.5,1666.5 C 3560.05,1667.46 3559.38,1668.29 3558.5,1669C 3559.63,1670.02 3559.3,1670.68 3557.5,1671C 3558.17,1751.67 3558.83,1832.33 3559.5,1913C 3557.88,1913.24 3556.88,1914.07 3556.5,1915.5C 3522.12,1912.02 3488.12,1914.52 3454.5,1923C 3446.59,1925.8 3438.59,1928.3 3430.5,1930.5C 3429.31,1929.32 3428.15,1929.32 3427,1930.5C 3426.5,1929.33 3425.67,1928.5 3424.5,1928C 3426.5,1844.38 3427.16,1760.55 3426.5,1676.5C 3428.48,1676.84 3429.82,1676.18 3430.5,1674.5C 3473.49,1666.32 3516.82,1663.65 3560.5,1666.5 Z"/></g>
<g><path style="opacity:1" fill="#3b93f0" d="M 3560.5,1666.5 C 3627.07,1670.68 3690.07,1687.34 3749.5,1716.5C 3749.13,1717.69 3748.3,1718.36 3747,1718.5C 3744.1,1718.35 3741.43,1717.01 3739,1714.5C 3736.12,1715.79 3736.29,1717.29 3739.5,1719C 3738.22,1719.68 3737.05,1719.52 3736,1718.5C 3735.83,1809.5 3735.33,1900.5 3734.5,1991.5C 3733.69,1991.81 3733.03,1992.31 3732.5,1993C 3734.53,1994.4 3734.86,1996.06 3733.5,1998C 3735.3,1998.32 3735.63,1998.98 3734.5,2000C 3735.03,2000.69 3735.69,2001.19 3736.5,2001.5C 3742.21,2000.55 3743.55,2002.55 3740.5,2007.5C 3690.55,1954.52 3629.21,1923.86 3556.5,1915.5C 3556.88,1914.07 3557.88,1913.24 3559.5,1913C 3558.83,1832.33 3558.17,1751.67 3557.5,1671C 3559.3,1670.68 3559.63,1670.02 3558.5,1669C 3559.38,1668.29 3560.05,1667.46 3560.5,1666.5 Z"/></g>
<g><path style="opacity:1" fill="#4599f3" d="M 3430.5,1674.5 C 3429.82,1676.18 3428.48,1676.84 3426.5,1676.5C 3427.16,1760.55 3426.5,1844.38 3424.5,1928C 3425.67,1928.5 3426.5,1929.33 3427,1930.5C 3428.15,1929.32 3429.31,1929.32 3430.5,1930.5C 3416.84,1935.51 3403.5,1941.51 3390.5,1948.5C 3389.45,1948.1 3389.45,1947.43 3390.5,1946.5C 3389.73,1945.29 3388.89,1945.29 3388,1946.5C 3387.58,1945.33 3386.91,1944.33 3386,1943.5C 3385.17,1857.46 3385.34,1771.46 3386.5,1685.5C 3400.91,1681.2 3415.58,1677.54 3430.5,1674.5 Z"/></g>
<g><path style="opacity:1" fill="#489cf4" d="M 3386.5,1685.5 C 3385.34,1771.46 3385.17,1857.46 3386,1943.5C 3386.91,1944.33 3387.58,1945.33 3388,1946.5C 3388.89,1945.29 3389.73,1945.29 3390.5,1946.5C 3389.45,1947.43 3389.45,1948.1 3390.5,1948.5C 3338.83,1978.17 3298.17,2018.83 3268.5,2070.5C 3266.99,2069.27 3265.49,2069.27 3264,2070.5C 3263.73,2067.31 3265.06,2066.31 3268,2067.5C 3268.17,2066.83 3268.33,2066.17 3268.5,2065.5C 3268.26,2062.94 3267.76,2062.94 3267,2065.5C 3266.29,2064.03 3265.12,2063.36 3263.5,2063.5C 3263.83,1955.46 3263.5,1847.46 3262.5,1739.5C 3301.4,1716.06 3342.73,1698.06 3386.5,1685.5 Z"/></g>
<g><path style="opacity:1" fill="#348eee" d="M 3868.5,1693.5 C 3866.75,1696.22 3865.42,1698.89 3864.5,1701.5C 3864.85,1702.7 3865.35,1702.7 3866,1701.5C 3866.17,2020.54 3866.67,2339.54 3867.5,2658.5C 3834.28,2687.8 3797.61,2712.13 3757.5,2731.5C 3756.12,2730.77 3754.62,2730.1 3753,2729.5C 3752.69,2730.31 3752.19,2730.97 3751.5,2731.5C 3750.15,2730.48 3749.15,2729.15 3748.5,2727.5C 3747.28,2728.71 3746.11,2728.71 3745,2727.5C 3744.5,2728 3744,2728.5 3743.5,2729C 3744.71,2730.11 3744.71,2731.28 3743.5,2732.5C 3744.38,2733.25 3745.38,2733.75 3746.5,2734C 3744.27,2735.92 3741.94,2737.75 3739.5,2739.5C 3738.11,2738.39 3736.94,2737.06 3736,2735.5C 3736.16,2643.79 3735.33,2552.29 3733.5,2461C 3735.48,2460.39 3735.81,2459.39 3734.5,2458C 3735.29,2456.91 3735.96,2455.75 3736.5,2454.5C 3736.15,2453.3 3735.65,2453.3 3735,2454.5C 3734.49,2453.47 3733.99,2452.47 3733.5,2451.5C 3802.69,2378.45 3832.86,2291.45 3824,2190.5C 3815.68,2120.3 3787.85,2059.3 3740.5,2007.5C 3743.55,2002.55 3742.21,2000.55 3736.5,2001.5C 3735.69,2001.19 3735.03,2000.69 3734.5,2000C 3735.63,1998.98 3735.3,1998.32 3733.5,1998C 3734.86,1996.06 3734.53,1994.4 3732.5,1993C 3733.03,1992.31 3733.69,1991.81 3734.5,1991.5C 3735.33,1900.5 3735.83,1809.5 3736,1718.5C 3737.05,1719.52 3738.22,1719.68 3739.5,1719C 3736.29,1717.29 3736.12,1715.79 3739,1714.5C 3741.43,1717.01 3744.1,1718.35 3747,1718.5C 3748.3,1718.36 3749.13,1717.69 3749.5,1716.5C 3771.09,1726.71 3791.92,1738.38 3812,1751.5C 3831.36,1732.64 3850.19,1713.31 3868.5,1693.5 Z"/></g>
<g><path style="opacity:1" fill="#fefefe" d="M 3556.5,1915.5 C 3629.21,1923.86 3690.55,1954.52 3740.5,2007.5C 3787.85,2059.3 3815.68,2120.3 3824,2190.5C 3832.86,2291.45 3802.69,2378.45 3733.5,2451.5C 3685.12,2499.85 3626.79,2528.19 3558.5,2536.5C 3519.36,2540.29 3481.03,2536.63 3443.5,2525.5C 3424.24,2519.21 3405.58,2511.21 3387.5,2501.5C 3339.22,2473.55 3300.88,2435.55 3272.5,2387.5C 3265.82,2375.47 3259.65,2363.14 3254,2350.5C 3217.28,2254.94 3222.12,2161.6 3268.5,2070.5C 3298.17,2018.83 3338.83,1978.17 3390.5,1948.5C 3403.5,1941.51 3416.84,1935.51 3430.5,1930.5C 3438.59,1928.3 3446.59,1925.8 3454.5,1923C 3488.12,1914.52 3522.12,1912.02 3556.5,1915.5 Z"/></g>
<g><path style="opacity:1" fill="#eb9806" d="M 4467.5,2265.5 C 4383.52,2266.66 4299.52,2266.82 4215.5,2266C 4214.02,2265.02 4212.69,2263.85 4211.5,2262.5C 4211.36,2263.57 4211.36,2264.74 4211.5,2266C 4210.91,2266.46 4210.24,2266.63 4209.5,2266.5C 4210.82,2239.5 4210.82,2212.5 4209.5,2185.5C 4276.64,2201.82 4342.98,2221.32 4408.5,2244C 4428.18,2251.28 4447.85,2258.45 4467.5,2265.5 Z"/></g>
<g><path style="opacity:1" fill="#ec9707" d="M 2843.5,2198.5 C 2844.48,2202.63 2844.82,2206.97 2844.5,2211.5C 2844.68,2229.84 2845.02,2248.17 2845.5,2266.5C 2844.76,2266.63 2844.09,2266.46 2843.5,2266C 2843.64,2264.74 2843.64,2263.57 2843.5,2262.5C 2842.31,2263.85 2840.98,2265.02 2839.5,2266C 2775.5,2266.83 2711.5,2266.67 2647.5,2265.5C 2646.5,2262.97 2645.67,2262.97 2645,2265.5C 2644.52,2264.55 2644.35,2263.55 2644.5,2262.5C 2709.76,2237.97 2776.1,2216.63 2843.5,2198.5 Z"/></g>
<g><path style="opacity:1" fill="#f5cd85" d="M 2843.5,2198.5 C 2843.56,2197.96 2843.89,2197.62 2844.5,2197.5C 2845.81,2202.32 2845.81,2206.98 2844.5,2211.5C 2844.82,2206.97 2844.48,2202.63 2843.5,2198.5 Z"/></g>
<g><path style="opacity:1" fill="#ec9408" d="M 2644.5,2262.5 C 2644.35,2263.55 2644.52,2264.55 2645,2265.5C 2645.67,2262.97 2646.5,2262.97 2647.5,2265.5C 2711.5,2266.67 2775.5,2266.83 2839.5,2266C 2840.98,2265.02 2842.31,2263.85 2843.5,2262.5C 2843.64,2263.57 2843.64,2264.74 2843.5,2266C 2844.09,2266.46 2844.76,2266.63 2845.5,2266.5C 2847.04,2286.86 2849.04,2307.19 2851.5,2327.5C 2850.76,2327.63 2850.09,2327.46 2849.5,2327C 2849.07,2326.08 2848.74,2325.25 2848.5,2324.5C 2847.61,2325.32 2847.28,2326.32 2847.5,2327.5C 2732.83,2327.83 2618.16,2327.5 2503.5,2326.5C 2502.41,2325.11 2501.08,2324.61 2499.5,2325C 2500.33,2325.91 2501.33,2326.58 2502.5,2327C 2500,2327.87 2498,2327.21 2496.5,2325C 2494.31,2324.94 2492.31,2324.77 2490.5,2324.5C 2540.87,2301.7 2592.2,2281.04 2644.5,2262.5 Z"/></g>
<g><path style="opacity:1" fill="#ec9408" d="M 4467.5,2265.5 C 4496.17,2275.85 4524.5,2286.68 4552.5,2298C 4571.46,2305.92 4590.13,2314.08 4608.5,2322.5C 4607.62,2322.37 4606.96,2322.7 4606.5,2323.5C 4610.36,2324.6 4610.36,2325.43 4606.5,2326C 4608.6,2326.56 4608.76,2327.06 4607,2327.5C 4474,2327.66 4340.83,2327.49 4207.5,2327C 4207.02,2325.99 4206.85,2324.82 4207,2323.5C 4206.05,2325.09 4204.88,2326.43 4203.5,2327.5C 4205.96,2307.21 4207.96,2286.88 4209.5,2266.5C 4210.24,2266.63 4210.91,2266.46 4211.5,2266C 4211.36,2264.74 4211.36,2263.57 4211.5,2262.5C 4212.69,2263.85 4214.02,2265.02 4215.5,2266C 4299.52,2266.82 4383.52,2266.66 4467.5,2265.5 Z"/></g>
<g><path style="opacity:1" fill="#ed910c" d="M 4608.5,2322.5 C 4649.85,2339.84 4690.52,2358.84 4730.5,2379.5C 4727.61,2379.22 4726.11,2380.55 4726,2383.5C 4724.54,2380.52 4722.54,2378.86 4720,2378.5C 4546.57,2377.67 4373.07,2377.17 4199.5,2377C 4197.35,2375.18 4197.35,2373.68 4199.5,2372.5C 4199.17,2372.17 4198.83,2371.83 4198.5,2371.5C 4197.27,2372.34 4196.27,2373.34 4195.5,2374.5C 4198.28,2358.84 4200.94,2343.18 4203.5,2327.5C 4204.88,2326.43 4206.05,2325.09 4207,2323.5C 4206.85,2324.82 4207.02,2325.99 4207.5,2327C 4340.83,2327.49 4474,2327.66 4607,2327.5C 4608.76,2327.06 4608.6,2326.56 4606.5,2326C 4610.36,2325.43 4610.36,2324.6 4606.5,2323.5C 4606.96,2322.7 4607.62,2322.37 4608.5,2322.5 Z"/></g>
<g><path style="opacity:1" fill="#ed910c" d="M 2490.5,2324.5 C 2492.31,2324.77 2494.31,2324.94 2496.5,2325C 2498,2327.21 2500,2327.87 2502.5,2327C 2501.33,2326.58 2500.33,2325.91 2499.5,2325C 2501.08,2324.61 2502.41,2325.11 2503.5,2326.5C 2618.16,2327.5 2732.83,2327.83 2847.5,2327.5C 2847.28,2326.32 2847.61,2325.32 2848.5,2324.5C 2848.74,2325.25 2849.07,2326.08 2849.5,2327C 2850.09,2327.46 2850.76,2327.63 2851.5,2327.5C 2854.86,2350.66 2859.19,2373.66 2864.5,2396.5C 2863.18,2397.85 2862.18,2397.68 2861.5,2396C 2861.36,2393.01 2860.86,2389.84 2860,2386.5C 2859.11,2387.89 2858.61,2387.72 2858.5,2386C 2860.04,2384.36 2859.71,2383.19 2857.5,2382.5C 2857.35,2383.91 2857.18,2385.58 2857,2387.5C 2856.67,2386.5 2856.33,2385.5 2856,2384.5C 2692.71,2385.17 2529.38,2385.83 2366,2386.5C 2364.09,2384.9 2362.59,2385.23 2361.5,2387.5C 2360.82,2387.14 2360.15,2386.8 2359.5,2386.5C 2402.25,2363.96 2445.92,2343.29 2490.5,2324.5 Z"/></g>
<g><path style="opacity:1" fill="#ed8e0e" d="M 2864.5,2396.5 C 2866.5,2405.17 2868.5,2413.84 2870.5,2422.5C 2869.24,2420.66 2867.58,2419.32 2865.5,2418.5C 2771.41,2419.83 2677.25,2420.5 2583,2420.5C 2489.5,2420.33 2396,2420.17 2302.5,2420C 2303.65,2419.09 2303.49,2418.25 2302,2417.5C 2300.99,2418.34 2299.82,2418.67 2298.5,2418.5C 2318.35,2407.07 2338.69,2396.41 2359.5,2386.5C 2360.15,2386.8 2360.82,2387.14 2361.5,2387.5C 2362.59,2385.23 2364.09,2384.9 2366,2386.5C 2529.38,2385.83 2692.71,2385.17 2856,2384.5C 2856.33,2385.5 2856.67,2386.5 2857,2387.5C 2857.18,2385.58 2857.35,2383.91 2857.5,2382.5C 2859.71,2383.19 2860.04,2384.36 2858.5,2386C 2858.61,2387.72 2859.11,2387.89 2860,2386.5C 2860.86,2389.84 2861.36,2393.01 2861.5,2396C 2862.18,2397.68 2863.18,2397.85 2864.5,2396.5 Z"/></g>
<g><path style="opacity:1" fill="#ed8e0e" d="M 4730.5,2379.5 C 4757.63,2391.89 4783.96,2405.56 4809.5,2420.5C 4808.2,2421.81 4806.87,2421.81 4805.5,2420.5C 4805,2421.6 4804.67,2422.6 4804.5,2423.5C 4803,2422.92 4801.67,2422.08 4800.5,2421C 4597.5,2420.5 4394.5,2420.33 4191.5,2420.5C 4190.25,2414.14 4189.08,2414.47 4188,2421.5C 4187.88,2419.56 4187.05,2418.23 4185.5,2417.5C 4188.84,2403.13 4192.17,2388.8 4195.5,2374.5C 4196.27,2373.34 4197.27,2372.34 4198.5,2371.5C 4198.83,2371.83 4199.17,2372.17 4199.5,2372.5C 4197.35,2373.68 4197.35,2375.18 4199.5,2377C 4373.07,2377.17 4546.57,2377.67 4720,2378.5C 4722.54,2378.86 4724.54,2380.52 4726,2383.5C 4726.11,2380.55 4727.61,2379.22 4730.5,2379.5 Z"/></g>
<g><path style="opacity:1" fill="#ee8c10" d="M 4809.5,2420.5 C 4830.99,2431.41 4851.99,2443.08 4872.5,2455.5C 4676.22,2455.48 4479.55,2455.48 4282.5,2455.5C 4282.17,2456.17 4281.83,2456.83 4281.5,2457.5C 4280.25,2456.96 4279.09,2456.29 4278,2455.5C 4277.67,2456.83 4277.33,2458.17 4277,2459.5C 4276.33,2460.25 4275.5,2460.59 4274.5,2460.5C 4243.18,2451.14 4211.85,2441.97 4180.5,2433C 4182.26,2427.77 4183.93,2422.6 4185.5,2417.5C 4187.05,2418.23 4187.88,2419.56 4188,2421.5C 4189.08,2414.47 4190.25,2414.14 4191.5,2420.5C 4394.5,2420.33 4597.5,2420.5 4800.5,2421C 4801.67,2422.08 4803,2422.92 4804.5,2423.5C 4804.67,2422.6 4805,2421.6 4805.5,2420.5C 4806.87,2421.81 4808.2,2421.81 4809.5,2420.5 Z"/></g>
<g><path style="opacity:1" fill="#ee8c10" d="M 2870.5,2422.5 C 2873.29,2429.98 2875.62,2437.64 2877.5,2445.5C 2863.91,2450.03 2850.24,2454.36 2836.5,2458.5C 2835.07,2458.12 2834.24,2457.12 2834,2455.5C 2833.52,2456.45 2833.35,2457.45 2833.5,2458.5C 2830.46,2459.06 2827.63,2459.4 2825,2459.5C 2824.67,2458.83 2824.33,2458.17 2824,2457.5C 2822.95,2458.52 2821.78,2458.68 2820.5,2458C 2821.67,2457.58 2822.67,2456.91 2823.5,2456C 2823,2455.83 2822.5,2455.67 2822,2455.5C 2624.79,2455.48 2427.96,2455.48 2231.5,2455.5C 2253.31,2442.42 2275.64,2430.09 2298.5,2418.5C 2299.82,2418.67 2300.99,2418.34 2302,2417.5C 2303.49,2418.25 2303.65,2419.09 2302.5,2420C 2396,2420.17 2489.5,2420.33 2583,2420.5C 2677.25,2420.5 2771.41,2419.83 2865.5,2418.5C 2867.58,2419.32 2869.24,2420.66 2870.5,2422.5 Z"/></g>
<g><path style="opacity:1" fill="#489cf4" d="M 3272.5,2387.5 C 3300.88,2435.55 3339.22,2473.55 3387.5,2501.5C 3387.22,2502.29 3386.72,2502.96 3386,2503.5C 3385.33,2588.83 3385.33,2674.17 3386,2759.5C 3387.69,2762.33 3389.52,2764.33 3391.5,2765.5C 3391.15,2766.7 3390.65,2766.7 3390,2765.5C 3389.54,2766.09 3389.37,2766.76 3389.5,2767.5C 3345.33,2755.33 3303.66,2737.33 3264.5,2713.5C 3264.28,2712.27 3263.61,2711.27 3262.5,2710.5C 3263.48,2603.38 3263.82,2496.05 3263.5,2388.5C 3266.58,2387.72 3269.58,2387.38 3272.5,2387.5 Z"/></g>
<g><path style="opacity:1" fill="#ee8a13" d="M 2836.5,2458.5 C 2801.98,2469.56 2767.65,2481.23 2733.5,2493.5C 2732.16,2491.88 2730.33,2490.88 2728,2490.5C 2727.44,2489.28 2727.77,2488.28 2729,2487.5C 2733.69,2487.42 2738.36,2487.75 2743,2488.5C 2744.12,2486.59 2744.29,2484.75 2743.5,2483C 2744.12,2480.52 2745.46,2480.02 2747.5,2481.5C 2747.83,2480.83 2748.17,2480.17 2748.5,2479.5C 2750.86,2479.56 2753.2,2479.56 2755.5,2479.5C 2757.03,2479.53 2758.2,2480.2 2759,2481.5C 2760.08,2479.61 2761.41,2479.27 2763,2480.5C 2764.51,2479.91 2766.01,2479.24 2767.5,2478.5C 2575.44,2477.21 2383.77,2477.21 2192.5,2478.5C 2205.3,2470.6 2218.3,2462.93 2231.5,2455.5C 2427.96,2455.48 2624.79,2455.48 2822,2455.5C 2822.5,2455.67 2823,2455.83 2823.5,2456C 2822.67,2456.91 2821.67,2457.58 2820.5,2458C 2821.78,2458.68 2822.95,2458.52 2824,2457.5C 2824.33,2458.17 2824.67,2458.83 2825,2459.5C 2827.63,2459.4 2830.46,2459.06 2833.5,2458.5C 2833.35,2457.45 2833.52,2456.45 2834,2455.5C 2834.24,2457.12 2835.07,2458.12 2836.5,2458.5 Z"/></g>
<g><path style="opacity:1" fill="#ee8a13" d="M 4872.5,2455.5 C 4885.97,2462.4 4898.97,2470.07 4911.5,2478.5C 4907.88,2478.32 4904.22,2478.65 4900.5,2479.5C 4805.54,2478.18 4710.54,2477.51 4615.5,2477.5C 4522.17,2477.83 4428.83,2478.17 4335.5,2478.5C 4335.86,2479.18 4336.2,2479.85 4336.5,2480.5C 4315.55,2474.4 4294.88,2467.74 4274.5,2460.5C 4275.5,2460.59 4276.33,2460.25 4277,2459.5C 4277.33,2458.17 4277.67,2456.83 4278,2455.5C 4279.09,2456.29 4280.25,2456.96 4281.5,2457.5C 4281.83,2456.83 4282.17,2456.17 4282.5,2455.5C 4479.55,2455.48 4676.22,2455.48 4872.5,2455.5 Z"/></g>
<g><path style="opacity:1" fill="#ef8716" d="M 2733.5,2493.5 C 2653.54,2521.97 2575.2,2554.64 2498.5,2591.5C 2497.24,2591.54 2496.24,2591.04 2495.5,2590C 2340.83,2589.33 2186.17,2589.33 2031.5,2590C 2030.97,2590.69 2030.31,2591.19 2029.5,2591.5C 2027.9,2590.52 2026.24,2590.35 2024.5,2591C 2023.85,2592.61 2023.02,2594.11 2022,2595.5C 2020.61,2594.45 2019.11,2594.28 2017.5,2595C 2018.62,2596.61 2018.12,2597.78 2016,2598.5C 2015.18,2597.18 2014.02,2596.51 2012.5,2596.5C 2070.58,2554.45 2130.58,2515.11 2192.5,2478.5C 2383.77,2477.21 2575.44,2477.21 2767.5,2478.5C 2766.01,2479.24 2764.51,2479.91 2763,2480.5C 2761.41,2479.27 2760.08,2479.61 2759,2481.5C 2758.2,2480.2 2757.03,2479.53 2755.5,2479.5C 2753.2,2479.56 2750.86,2479.56 2748.5,2479.5C 2748.17,2480.17 2747.83,2480.83 2747.5,2481.5C 2745.46,2480.02 2744.12,2480.52 2743.5,2483C 2744.29,2484.75 2744.12,2486.59 2743,2488.5C 2738.36,2487.75 2733.69,2487.42 2729,2487.5C 2727.77,2488.28 2727.44,2489.28 2728,2490.5C 2730.33,2490.88 2732.16,2491.88 2733.5,2493.5 Z"/></g>
<g><path style="opacity:1" fill="#ef8716" d="M 4911.5,2478.5 C 4967.53,2511.84 5022.19,2547.17 5075.5,2584.5C 5074.37,2586.13 5073.04,2587.63 5071.5,2589C 4916.5,2589.33 4761.5,2589.67 4606.5,2590C 4607.6,2590.77 4607.6,2591.6 4606.5,2592.5C 4518.57,2550.03 4428.57,2512.69 4336.5,2480.5C 4336.2,2479.85 4335.86,2479.18 4335.5,2478.5C 4428.83,2478.17 4522.17,2477.83 4615.5,2477.5C 4710.54,2477.51 4805.54,2478.18 4900.5,2479.5C 4904.22,2478.65 4907.88,2478.32 4911.5,2478.5 Z"/></g>
<g><path style="opacity:1" fill="#3a93f0" d="M 3733.5,2451.5 C 3733.99,2452.47 3734.49,2453.47 3735,2454.5C 3735.65,2453.3 3736.15,2453.3 3736.5,2454.5C 3735.96,2455.75 3735.29,2456.91 3734.5,2458C 3735.81,2459.39 3735.48,2460.39 3733.5,2461C 3735.33,2552.29 3736.16,2643.79 3736,2735.5C 3736.94,2737.06 3738.11,2738.39 3739.5,2739.5C 3741.94,2737.75 3744.27,2735.92 3746.5,2734C 3745.38,2733.75 3744.38,2733.25 3743.5,2732.5C 3744.71,2731.28 3744.71,2730.11 3743.5,2729C 3744,2728.5 3744.5,2728 3745,2727.5C 3746.11,2728.71 3747.28,2728.71 3748.5,2727.5C 3749.15,2729.15 3750.15,2730.48 3751.5,2731.5C 3752.19,2730.97 3752.69,2730.31 3753,2729.5C 3754.62,2730.1 3756.12,2730.77 3757.5,2731.5C 3714.48,2753.23 3669.15,2768.73 3621.5,2778C 3603.98,2781.32 3586.31,2783.49 3568.5,2784.5C 3565.04,2784.38 3561.87,2784.05 3559,2783.5C 3558.83,2703.13 3558.33,2622.79 3557.5,2542.5C 3558.16,2540.38 3558.49,2538.38 3558.5,2536.5C 3626.79,2528.19 3685.12,2499.85 3733.5,2451.5 Z"/></g>
<g><path style="opacity:1" fill="#4599f3" d="M 3387.5,2501.5 C 3405.58,2511.21 3424.24,2519.21 3443.5,2525.5C 3442.35,2527.69 3440.85,2527.69 3439,2525.5C 3436.82,2527.64 3434.32,2527.97 3431.5,2526.5C 3432.51,2525.6 3432.51,2524.94 3431.5,2524.5C 3430.81,2525.03 3430.31,2525.69 3430,2526.5C 3427.85,2525.7 3426.02,2525.7 3424.5,2526.5C 3425.83,2609.9 3427.17,2693.23 3428.5,2776.5C 3415.21,2774.59 3402.21,2771.59 3389.5,2767.5C 3389.37,2766.76 3389.54,2766.09 3390,2765.5C 3390.65,2766.7 3391.15,2766.7 3391.5,2765.5C 3389.52,2764.33 3387.69,2762.33 3386,2759.5C 3385.33,2674.17 3385.33,2588.83 3386,2503.5C 3386.72,2502.96 3387.22,2502.29 3387.5,2501.5 Z"/></g>
<g><path style="opacity:1" fill="#4297f2" d="M 3443.5,2525.5 C 3481.03,2536.63 3519.36,2540.29 3558.5,2536.5C 3558.49,2538.38 3558.16,2540.38 3557.5,2542.5C 3558.33,2622.79 3558.83,2703.13 3559,2783.5C 3561.87,2784.05 3565.04,2784.38 3568.5,2784.5C 3521.57,2788.61 3474.9,2785.95 3428.5,2776.5C 3427.17,2693.23 3425.83,2609.9 3424.5,2526.5C 3426.02,2525.7 3427.85,2525.7 3430,2526.5C 3430.31,2525.69 3430.81,2525.03 3431.5,2524.5C 3432.51,2524.94 3432.51,2525.6 3431.5,2526.5C 3434.32,2527.97 3436.82,2527.64 3439,2525.5C 3440.85,2527.69 3442.35,2527.69 3443.5,2525.5 Z"/></g>
<g><path style="opacity:1" fill="#f0811c" d="M 2498.5,2591.5 C 2440.89,2620.3 2384.22,2650.64 2328.5,2682.5C 2329.46,2681.64 2329.46,2680.97 2328.5,2680.5C 2326.88,2681.15 2325.22,2681.65 2323.5,2682C 2182.5,2682.67 2041.5,2682.67 1900.5,2682C 1901.25,2681.33 1901.59,2680.5 1901.5,2679.5C 1937.65,2650.68 1974.65,2623.01 2012.5,2596.5C 2014.02,2596.51 2015.18,2597.18 2016,2598.5C 2018.12,2597.78 2018.62,2596.61 2017.5,2595C 2019.11,2594.28 2020.61,2594.45 2022,2595.5C 2023.02,2594.11 2023.85,2592.61 2024.5,2591C 2026.24,2590.35 2027.9,2590.52 2029.5,2591.5C 2030.31,2591.19 2030.97,2590.69 2031.5,2590C 2186.17,2589.33 2340.83,2589.33 2495.5,2590C 2496.24,2591.04 2497.24,2591.54 2498.5,2591.5 Z"/></g>
<g><path style="opacity:1" fill="#f0811c" d="M 5075.5,2584.5 C 5119.04,2615.38 5161.71,2647.38 5203.5,2680.5C 5199.11,2680.46 5198.77,2680.96 5202.5,2682C 5201.97,2682.69 5201.31,2683.19 5200.5,2683.5C 5060.31,2683.16 4920.14,2682.16 4780,2680.5C 4778.12,2680.52 4776.62,2681.19 4775.5,2682.5C 4720.34,2650.75 4664,2620.75 4606.5,2592.5C 4607.6,2591.6 4607.6,2590.77 4606.5,2590C 4761.5,2589.67 4916.5,2589.33 5071.5,2589C 5073.04,2587.63 5074.37,2586.13 5075.5,2584.5 Z"/></g>
<g><path style="opacity:1" fill="#f17d20" d="M 1901.5,2679.5 C 1901.59,2680.5 1901.25,2681.33 1900.5,2682C 2041.5,2682.67 2182.5,2682.67 2323.5,2682C 2325.22,2681.65 2326.88,2681.15 2328.5,2680.5C 2329.46,2680.97 2329.46,2681.64 2328.5,2682.5C 2306.34,2696.41 2284.01,2710.08 2261.5,2723.5C 2126.18,2722.18 1990.85,2722.18 1855.5,2723.5C 1854.12,2726.08 1853.28,2725.74 1853,2722.5C 1851.97,2725.26 1850.3,2726.59 1848,2726.5C 1847.53,2725.42 1847.7,2724.42 1848.5,2723.5C 1865.56,2708.11 1883.22,2693.44 1901.5,2679.5 Z"/></g>
<g><path style="opacity:1" fill="#f17d20" d="M 5203.5,2680.5 C 5220.77,2693.44 5237.44,2707.11 5253.5,2721.5C 5252.85,2723.09 5252.35,2724.75 5252,2726.5C 5251.33,2725.17 5250.67,2725.17 5250,2726.5C 5249.68,2724.94 5248.85,2723.77 5247.5,2723C 5116.83,2722.33 4986.17,2722.33 4855.5,2723C 4853.02,2723.89 4850.69,2724.23 4848.5,2724C 4849.17,2724.99 4849.17,2726.15 4848.5,2727.5C 4824.3,2712.24 4799.96,2697.24 4775.5,2682.5C 4776.62,2681.19 4778.12,2680.52 4780,2680.5C 4920.14,2682.16 5060.31,2683.16 5200.5,2683.5C 5201.31,2683.19 5201.97,2682.69 5202.5,2682C 5198.77,2680.96 5199.11,2680.46 5203.5,2680.5 Z"/></g>
<g><path style="opacity:1" fill="#f17b23" d="M 5253.5,2721.5 C 5274.09,2737.76 5294.09,2754.76 5313.5,2772.5C 5312.54,2772.95 5311.71,2773.62 5311,2774.5C 5310.67,2773.5 5310.33,2772.5 5310,2771.5C 5307.81,2771.15 5305.64,2771.65 5303.5,2773C 5178.17,2773.5 5052.83,2773.67 4927.5,2773.5C 4927.35,2774.55 4927.52,2775.55 4928,2776.5C 4928.33,2776.17 4928.67,2775.83 4929,2775.5C 4931.05,2776.89 4933.21,2778.05 4935.5,2779C 4934.15,2779.77 4933.32,2780.94 4933,2782.5C 4932.78,2781.06 4932.28,2779.73 4931.5,2778.5C 4930.26,2779.25 4928.93,2779.58 4927.5,2779.5C 4901.34,2761.92 4875,2744.58 4848.5,2727.5C 4849.17,2726.15 4849.17,2724.99 4848.5,2724C 4850.69,2724.23 4853.02,2723.89 4855.5,2723C 4986.17,2722.33 5116.83,2722.33 5247.5,2723C 5248.85,2723.77 5249.68,2724.94 5250,2726.5C 5250.67,2725.17 5251.33,2725.17 5252,2726.5C 5252.35,2724.75 5252.85,2723.09 5253.5,2721.5 Z"/></g>
<g><path style="opacity:1" fill="#f17b23" d="M 2261.5,2723.5 C 2235.7,2740.24 2210.03,2757.24 2184.5,2774.5C 2056,2773.83 1927.5,2773.17 1799,2772.5C 1797.25,2773.63 1795.41,2774.63 1793.5,2775.5C 1791.89,2775.61 1790.22,2775.28 1788.5,2774.5C 1807.91,2756.76 1827.91,2739.76 1848.5,2723.5C 1847.7,2724.42 1847.53,2725.42 1848,2726.5C 1850.3,2726.59 1851.97,2725.26 1853,2722.5C 1853.28,2725.74 1854.12,2726.08 1855.5,2723.5C 1990.85,2722.18 2126.18,2722.18 2261.5,2723.5 Z"/></g>
<g><path style="opacity:1" fill="#f17727" d="M 2184.5,2774.5 C 2158.51,2792.83 2132.51,2811.16 2106.5,2829.5C 1980.2,2829.5 1853.87,2829.5 1727.5,2829.5C 1747.51,2810.83 1767.84,2792.49 1788.5,2774.5C 1790.22,2775.28 1791.89,2775.61 1793.5,2775.5C 1795.41,2774.63 1797.25,2773.63 1799,2772.5C 1927.5,2773.17 2056,2773.83 2184.5,2774.5 Z"/></g>
<g><path style="opacity:1" fill="#f17727" d="M 5313.5,2772.5 C 5339.79,2795.12 5365.46,2818.46 5390.5,2842.5C 5389.18,2842.67 5388.01,2842.34 5387,2841.5C 5386.69,2842.31 5386.19,2842.97 5385.5,2843.5C 5263.11,2842.17 5140.94,2842.17 5019,2843.5C 5017.99,2841.26 5017.16,2841.59 5016.5,2844.5C 4987.09,2822.41 4957.42,2800.75 4927.5,2779.5C 4928.93,2779.58 4930.26,2779.25 4931.5,2778.5C 4932.28,2779.73 4932.78,2781.06 4933,2782.5C 4933.32,2780.94 4934.15,2779.77 4935.5,2779C 4933.21,2778.05 4931.05,2776.89 4929,2775.5C 4928.67,2775.83 4928.33,2776.17 4928,2776.5C 4927.52,2775.55 4927.35,2774.55 4927.5,2773.5C 5052.83,2773.67 5178.17,2773.5 5303.5,2773C 5305.64,2771.65 5307.81,2771.15 5310,2771.5C 5310.33,2772.5 5310.67,2773.5 5311,2774.5C 5311.71,2773.62 5312.54,2772.95 5313.5,2772.5 Z"/></g>
<g><path style="opacity:1" fill="#f27529" d="M 2106.5,2829.5 C 2088.39,2844.06 2070.05,2858.4 2051.5,2872.5C 2053.26,2869.66 2052.76,2867.33 2050,2865.5C 2049.67,2865.83 2049.33,2866.17 2049,2866.5C 2048.19,2862.55 2047.69,2862.55 2047.5,2866.5C 1929.83,2866.67 1812.17,2866.5 1694.5,2866C 1692.82,2865.52 1692.16,2864.68 1692.5,2863.5C 1703.53,2851.47 1715.2,2840.13 1727.5,2829.5C 1853.87,2829.5 1980.2,2829.5 2106.5,2829.5 Z"/></g>
<g><path style="opacity:1" fill="#f2742a" d="M 5390.5,2842.5 C 5398.86,2850.53 5407.19,2858.53 5415.5,2866.5C 5415.5,2868.17 5415.5,2869.83 5415.5,2871.5C 5417.1,2871.31 5418.44,2871.81 5419.5,2873C 5417.14,2874.01 5415.8,2875.35 5415.5,2877C 5297.5,2876.83 5179.83,2877.67 5062.5,2879.5C 5047.17,2867.83 5031.83,2856.17 5016.5,2844.5C 5017.16,2841.59 5017.99,2841.26 5019,2843.5C 5140.94,2842.17 5263.11,2842.17 5385.5,2843.5C 5386.19,2842.97 5386.69,2842.31 5387,2841.5C 5388.01,2842.34 5389.18,2842.67 5390.5,2842.5 Z"/></g>
<g><path style="opacity:1" fill="#f3732c" d="M 1692.5,2863.5 C 1692.16,2864.68 1692.82,2865.52 1694.5,2866C 1812.17,2866.5 1929.83,2866.67 2047.5,2866.5C 2047.69,2862.55 2048.19,2862.55 2049,2866.5C 2049.33,2866.17 2049.67,2865.83 2050,2865.5C 2052.76,2867.33 2053.26,2869.66 2051.5,2872.5C 2036.37,2884.45 2021.37,2896.62 2006.5,2909C 1886.17,2909.67 1765.83,2909.67 1645.5,2909C 1660.73,2893.27 1676.4,2878.1 1692.5,2863.5 Z"/></g>
<g><path style="opacity:1" fill="#f3722d" d="M 5415.5,2866.5 C 5429.97,2880.46 5444.3,2894.63 5458.5,2909C 5338.5,2909.67 5218.5,2909.67 5098.5,2909C 5086.25,2899.39 5074.25,2889.55 5062.5,2879.5C 5179.83,2877.67 5297.5,2876.83 5415.5,2877C 5415.8,2875.35 5417.14,2874.01 5419.5,2873C 5418.44,2871.81 5417.1,2871.31 5415.5,2871.5C 5415.5,2869.83 5415.5,2868.17 5415.5,2866.5 Z"/></g>
<g><path style="opacity:1" fill="#1c1b2d" d="M 4362.5,2965.5 C 4442.41,2963.62 4510.91,2990.29 4568,3045.5C 4622.99,3106.29 4644.66,3177.62 4633,3259.5C 4616,3346.5 4567.5,3409 4487.5,3447C 4429.06,3471.12 4368.73,3476.79 4306.5,3464C 4221.52,3443.01 4160.69,3392.84 4124,3313.5C 4107.88,3270.95 4102.54,3226.95 4108,3181.5C 4123.93,3091.1 4173.43,3026.6 4256.5,2988C 4290.47,2973.64 4325.8,2966.14 4362.5,2965.5 Z"/></g>
<g><path style="opacity:1" fill="#1b1b2c" d="M 2179.5,3462.5 C 2179.5,3331.17 2179.5,3199.83 2179.5,3068.5C 2126.83,3068.5 2074.17,3068.5 2021.5,3068.5C 2021.5,3037.17 2021.5,3005.83 2021.5,2974.5C 2163.83,2974.5 2306.17,2974.5 2448.5,2974.5C 2448.5,3005.83 2448.5,3037.17 2448.5,3068.5C 2396.17,3068.5 2343.83,3068.5 2291.5,3068.5C 2291.5,3199.83 2291.5,3331.17 2291.5,3462.5C 2254.17,3462.5 2216.83,3462.5 2179.5,3462.5 Z"/></g>
<g><path style="opacity:1" fill="#1b1b2c" d="M 2870.5,3067.5 C 2788.17,3067.5 2705.83,3067.5 2623.5,3067.5C 2623.17,3101 2623.5,3134.34 2624.5,3167.5C 2699.17,3167.5 2773.83,3167.5 2848.5,3167.5C 2848.5,3197.83 2848.5,3228.17 2848.5,3258.5C 2773.83,3258.5 2699.17,3258.5 2624.5,3258.5C 2623.5,3295 2623.17,3331.66 2623.5,3368.5C 2706.83,3368.5 2790.17,3368.5 2873.5,3368.5C 2873.5,3399.83 2873.5,3431.17 2873.5,3462.5C 2752.83,3462.5 2632.17,3462.5 2511.5,3462.5C 2511.5,3299.83 2511.5,3137.17 2511.5,2974.5C 2631.17,2974.5 2750.83,2974.5 2870.5,2974.5C 2870.5,3005.5 2870.5,3036.5 2870.5,3067.5 Z"/></g>
<g><path style="opacity:1" fill="#1c1b2d" d="M 3062.5,2974.5 C 3062.33,3047.5 3062.5,3120.5 3063,3193.5C 3063.72,3192.96 3064.22,3192.29 3064.5,3191.5C 3125.48,3119.52 3186.48,3047.52 3247.5,2975.5C 3330.83,2974.5 3414.16,2974.17 3497.5,2974.5C 3537.51,3083.3 3578.34,3192.3 3620,3301.5C 3661.21,3192.74 3702.71,3084.08 3744.5,2975.5C 3784.16,2974.33 3823.83,2974.17 3863.5,2975C 3798.22,3137.43 3732.88,3299.6 3667.5,3461.5C 3635.17,3462.83 3602.83,3462.83 3570.5,3461.5C 3507.03,3302.42 3443.53,3143.09 3380,2983.5C 3314.07,3057.42 3248.91,3131.92 3184.5,3207C 3254.5,3291.98 3324.5,3376.98 3394.5,3462C 3347.83,3462.83 3301.16,3462.67 3254.5,3461.5C 3191.14,3382.48 3127.81,3303.48 3064.5,3224.5C 3064.44,3223.96 3064.11,3223.62 3063.5,3223.5C 3062.5,3303.16 3062.17,3382.83 3062.5,3462.5C 3025.17,3462.5 2987.83,3462.5 2950.5,3462.5C 2950.5,3299.83 2950.5,3137.17 2950.5,2974.5C 2987.83,2974.5 3025.17,2974.5 3062.5,2974.5 Z"/></g>
<g><path style="opacity:1" fill="#8c8c96" d="M 3062.5,2974.5 C 3063.17,3046.83 3063.83,3119.17 3064.5,3191.5C 3064.22,3192.29 3063.72,3192.96 3063,3193.5C 3062.5,3120.5 3062.33,3047.5 3062.5,2974.5 Z"/></g>
<g><path style="opacity:1" fill="#1b1b2c" d="M 3922.5,2974.5 C 3959.83,2974.5 3997.17,2974.5 4034.5,2974.5C 4034.5,3137.17 4034.5,3299.83 4034.5,3462.5C 3997.17,3462.5 3959.83,3462.5 3922.5,3462.5C 3922.5,3299.83 3922.5,3137.17 3922.5,2974.5 Z"/></g>
<g><path style="opacity:1" fill="#1c1b2d" d="M 4707.5,2974.5 C 4733.84,2974.33 4760.17,2974.5 4786.5,2975C 4865.79,3073.08 4944.95,3171.24 5024,3269.5C 5024.5,3171.17 5024.67,3072.83 5024.5,2974.5C 5061.83,2974.5 5099.17,2974.5 5136.5,2974.5C 5136.5,3137.17 5136.5,3299.83 5136.5,3462.5C 5108.83,3462.83 5081.16,3462.5 5053.5,3461.5C 4975.86,3364.69 4898.02,3268.02 4820,3171.5C 4819.5,3268.5 4819.33,3365.5 4819.5,3462.5C 4782.17,3462.5 4744.83,3462.5 4707.5,3462.5C 4707.5,3299.83 4707.5,3137.17 4707.5,2974.5 Z"/></g>
<g><path style="opacity:1" fill="#fefefe" d="M 4360.5,3064.5 C 4406.19,3061.78 4445.69,3075.78 4479,3106.5C 4503.24,3132.67 4516.91,3163.67 4520,3199.5C 4524.51,3242.45 4514.51,3281.45 4490,3316.5C 4454.65,3358.24 4409.48,3376.4 4354.5,3371C 4287.4,3363.54 4244.57,3327.37 4226,3262.5C 4217.13,3221.96 4220.46,3182.63 4236,3144.5C 4258.13,3101.05 4293.29,3075.22 4341.5,3067C 4347.99,3066.22 4354.32,3065.38 4360.5,3064.5 Z"/></g>
<g><path style="opacity:1" fill="#8d8c96" d="M 2870.5,3067.5 C 2788.67,3068.5 2706.67,3068.83 2624.5,3068.5C 2624.5,3101.5 2624.5,3134.5 2624.5,3167.5C 2623.5,3134.34 2623.17,3101 2623.5,3067.5C 2705.83,3067.5 2788.17,3067.5 2870.5,3067.5 Z"/></g>
<g><path style="opacity:1" fill="#8c8c96" d="M 2021.5,3068.5 C 2074.17,3068.5 2126.83,3068.5 2179.5,3068.5C 2179.5,3199.83 2179.5,3331.17 2179.5,3462.5C 2178.5,3331.67 2178.17,3200.67 2178.5,3069.5C 2126,3069.83 2073.66,3069.5 2021.5,3068.5 Z"/></g>
<g><path style="opacity:1" fill="#8c8c96" d="M 3064.5,3224.5 C 3063.83,3303.83 3063.17,3383.17 3062.5,3462.5C 3062.17,3382.83 3062.5,3303.16 3063.5,3223.5C 3064.11,3223.62 3064.44,3223.96 3064.5,3224.5 Z"/></g>
<g><path style="opacity:1" fill="#8d8c96" d="M 2624.5,3258.5 C 2624.5,3294.83 2624.5,3331.17 2624.5,3367.5C 2707.67,3367.17 2790.67,3367.5 2873.5,3368.5C 2790.17,3368.5 2706.83,3368.5 2623.5,3368.5C 2623.17,3331.66 2623.5,3295 2624.5,3258.5 Z"/></g>
<g><path style="opacity:1" fill="#1c1b2d" d="M 2612.5,3538.5 C 2667,3536.28 2714.67,3552.78 2755.5,3588C 2800.63,3633.07 2817.46,3687.24 2806,3750.5C 2790.74,3814.43 2752.24,3857.59 2690.5,3880C 2651.71,3891.55 2612.37,3893.55 2572.5,3886C 2504.06,3870.19 2458.56,3829.03 2436,3762.5C 2422.97,3711.69 2429.97,3664.02 2457,3619.5C 2485.54,3579.14 2524.04,3553.64 2572.5,3543C 2585.86,3540.44 2599.2,3538.94 2612.5,3538.5 Z"/></g>
<g><path style="opacity:1" fill="#1c1b2d" d="M 2283.5,3539.5 C 2332.84,3537.26 2377.51,3550.42 2417.5,3579C 2420.4,3581.28 2423.07,3583.78 2425.5,3586.5C 2403.86,3607.81 2382.19,3629.14 2360.5,3650.5C 2341.52,3632.41 2318.85,3623.41 2292.5,3623.5C 2254.36,3623.51 2226.86,3640.51 2210,3674.5C 2199.81,3701.94 2200.14,3729.27 2211,3756.5C 2230.78,3793.31 2261.61,3809.47 2303.5,3805C 2326.07,3803.48 2345.57,3794.98 2362,3779.5C 2383.67,3800.5 2405.33,3821.5 2427,3842.5C 2427.67,3843.17 2427.67,3843.83 2427,3844.5C 2388.37,3875.82 2344.04,3890.82 2294,3889.5C 2234.76,3890.21 2184.76,3869.21 2144,3826.5C 2105.56,3778.97 2093.89,3725.31 2109,3665.5C 2125.25,3615.91 2157.08,3580.08 2204.5,3558C 2229.8,3546.92 2256.14,3540.76 2283.5,3539.5 Z"/></g>
<g><path style="opacity:1" fill="#1c1b2d" d="M 5046.5,3764.5 C 5047.04,3764.44 5047.38,3764.11 5047.5,3763.5C 5044.91,3762.52 5042.25,3762.19 5039.5,3762.5C 5012.84,3761.74 4986.17,3761.08 4959.5,3760.5C 4959.5,3735.17 4959.5,3709.83 4959.5,3684.5C 5024.17,3684.5 5088.83,3684.5 5153.5,3684.5C 5156.12,3723.84 5149.62,3761.51 5134,3797.5C 5106.16,3850.02 5062.66,3880.19 5003.5,3888C 4951.49,3894.91 4903.16,3884.91 4858.5,3858C 4795.01,3812.38 4770.84,3750.88 4786,3673.5C 4800.42,3622.74 4831.26,3585.57 4878.5,3562C 4909.23,3546.65 4941.9,3539.15 4976.5,3539.5C 5026.08,3538.56 5070.42,3553.06 5109.5,3583C 5114.67,3588.17 5119.83,3593.33 5125,3598.5C 5125.67,3599.17 5125.67,3599.83 5125,3600.5C 5103.32,3621.68 5081.49,3642.68 5059.5,3663.5C 5047.69,3650.51 5034.02,3640.01 5018.5,3632C 4983.14,3618.14 4949.47,3621.14 4917.5,3641C 4893.06,3659.37 4881.06,3683.87 4881.5,3714.5C 4882.74,3764.91 4908.08,3795.08 4957.5,3805C 4982.6,3808.88 5005.6,3803.88 5026.5,3790C 5035.29,3783.06 5041.96,3774.56 5046.5,3764.5 Z"/></g>
<g><path style="opacity:1" fill="#1c1b2d" d="M 2849.5,3545.5 C 2873.17,3545.33 2896.84,3545.5 2920.5,3546C 2958.39,3599.63 2996.39,3653.13 3034.5,3706.5C 3072.61,3653.13 3110.61,3599.63 3148.5,3546C 3172.5,3545.5 3196.5,3545.33 3220.5,3545.5C 3220.5,3658.17 3220.5,3770.83 3220.5,3883.5C 3187.83,3883.5 3155.17,3883.5 3122.5,3883.5C 3122.67,3831.17 3122.5,3778.83 3122,3726.5C 3103.5,3752.33 3085,3778.17 3066.5,3804C 3045.16,3804.83 3023.83,3804.67 3002.5,3803.5C 2983.75,3777.68 2965.25,3751.68 2947,3725.5C 2946.5,3778.17 2946.33,3830.83 2946.5,3883.5C 2914.17,3883.5 2881.83,3883.5 2849.5,3883.5C 2849.5,3770.83 2849.5,3658.17 2849.5,3545.5 Z"/></g>
<g><path style="opacity:1" fill="#1c1b2d" d="M 3277.5,3545.5 C 3335.83,3545.33 3394.17,3545.5 3452.5,3546C 3485.97,3548.04 3514.14,3561.2 3537,3585.5C 3553.38,3605.83 3561.21,3629.16 3560.5,3655.5C 3559.45,3703.35 3537.11,3736.85 3493.5,3756C 3478.02,3761.71 3462.02,3764.71 3445.5,3765C 3422.5,3765.5 3399.5,3765.67 3376.5,3765.5C 3376.5,3804.83 3376.5,3844.17 3376.5,3883.5C 3343.5,3883.5 3310.5,3883.5 3277.5,3883.5C 3277.5,3770.83 3277.5,3658.17 3277.5,3545.5 Z"/></g>
<g><path style="opacity:1" fill="#1c1b2d" d="M 3591.5,3545.5 C 3624.17,3545.5 3656.83,3545.5 3689.5,3545.5C 3689.02,3619.86 3689.52,3694.2 3691,3768.5C 3695.7,3786.2 3706.87,3797.7 3724.5,3803C 3742.21,3807.67 3759.21,3806 3775.5,3798C 3790.39,3788.73 3797.89,3775.23 3798,3757.5C 3798.5,3686.83 3798.67,3616.17 3798.5,3545.5C 3831.17,3545.5 3863.83,3545.5 3896.5,3545.5C 3896.67,3617.83 3896.5,3690.17 3896,3762.5C 3890.21,3815.94 3863.05,3854.11 3814.5,3877C 3782.19,3888.78 3748.85,3892.44 3714.5,3888C 3661.15,3879.97 3623.32,3851.47 3601,3802.5C 3595.58,3789.05 3592.58,3775.05 3592,3760.5C 3591.5,3688.83 3591.33,3617.17 3591.5,3545.5 Z"/></g>
<g><path style="opacity:1" fill="#1b1b2d" d="M 3927.5,3545.5 C 4029.83,3545.5 4132.17,3545.5 4234.5,3545.5C 4234.5,3572.5 4234.5,3599.5 4234.5,3626.5C 4199.5,3626.5 4164.5,3626.5 4129.5,3626.5C 4129.5,3712.17 4129.5,3797.83 4129.5,3883.5C 4096.83,3883.5 4064.17,3883.5 4031.5,3883.5C 4031.5,3797.83 4031.5,3712.17 4031.5,3626.5C 3996.83,3626.5 3962.17,3626.5 3927.5,3626.5C 3927.5,3599.5 3927.5,3572.5 3927.5,3545.5 Z"/></g>
<g><path style="opacity:1" fill="#1b1b2d" d="M 4271.5,3545.5 C 4304.17,3545.5 4336.83,3545.5 4369.5,3545.5C 4369.5,3658.17 4369.5,3770.83 4369.5,3883.5C 4336.83,3883.5 4304.17,3883.5 4271.5,3883.5C 4271.5,3770.83 4271.5,3658.17 4271.5,3545.5 Z"/></g>
<g><path style="opacity:1" fill="#1c1b2d" d="M 4641.5,3722.5 C 4641.56,3723.04 4641.89,3723.38 4642.5,3723.5C 4643.5,3664.17 4643.83,3604.84 4643.5,3545.5C 4676.17,3545.5 4708.83,3545.5 4741.5,3545.5C 4741.5,3658.17 4741.5,3770.83 4741.5,3883.5C 4716.5,3883.67 4691.5,3883.5 4666.5,3883C 4620.04,3826.56 4573.71,3770.06 4527.5,3713.5C 4527.22,3712.71 4526.72,3712.04 4526,3711.5C 4525.5,3768.83 4525.33,3826.17 4525.5,3883.5C 4492.83,3883.5 4460.17,3883.5 4427.5,3883.5C 4427.5,3770.83 4427.5,3658.17 4427.5,3545.5C 4450.5,3545.33 4473.5,3545.5 4496.5,3546C 4545.42,3604.42 4593.76,3663.25 4641.5,3722.5 Z"/></g>
<g><path style="opacity:1" fill="#8c8c96" d="M 4643.5,3545.5 C 4643.83,3604.84 4643.5,3664.17 4642.5,3723.5C 4641.89,3723.38 4641.56,3723.04 4641.5,3722.5C 4642.17,3663.5 4642.83,3604.5 4643.5,3545.5 Z"/></g>
<g><path style="opacity:1" fill="#fdfdfd" d="M 3376.5,3613.5 C 3391.5,3613.33 3406.5,3613.5 3421.5,3614C 3452.5,3617.34 3466,3634.51 3462,3665.5C 3458.78,3679.72 3450.28,3689.22 3436.5,3694C 3433.77,3694.41 3431.1,3695.08 3428.5,3696C 3411.17,3696.5 3393.84,3696.67 3376.5,3696.5C 3376.5,3668.83 3376.5,3641.17 3376.5,3613.5 Z"/></g>
<g><path style="opacity:1" fill="#fefefe" d="M 2608.5,3622.5 C 2633.94,3620.11 2656.94,3626.27 2677.5,3641C 2695.17,3656.51 2705.34,3676.01 2708,3699.5C 2713.18,3735.65 2702.34,3765.82 2675.5,3790C 2650.29,3806.31 2622.96,3810.98 2593.5,3804C 2556.87,3792.68 2536.03,3767.85 2531,3729.5C 2527.25,3702.22 2532.92,3677.22 2548,3654.5C 2563.78,3635.52 2583.95,3624.86 2608.5,3622.5 Z"/></g>
<g><path style="opacity:1" fill="#8c8c96" d="M 4527.5,3713.5 C 4526.83,3770.17 4526.17,3826.83 4525.5,3883.5C 4525.33,3826.17 4525.5,3768.83 4526,3711.5C 4526.72,3712.04 4527.22,3712.71 4527.5,3713.5 Z"/></g>
<g><path style="opacity:1" fill="#82828c" d="M 5039.5,3762.5 C 5042.25,3762.19 5044.91,3762.52 5047.5,3763.5C 5047.38,3764.11 5047.04,3764.44 5046.5,3764.5C 5044.17,3763.83 5041.83,3763.17 5039.5,3762.5 Z"/></g>
<g><path style="opacity:1" fill="#010101" d="M 3242.5,3965.5 C 3249.5,3965.5 3256.5,3965.5 3263.5,3965.5C 3263.33,3986.84 3263.5,4008.17 3264,4029.5C 3274.96,4017.85 3288.46,4013.35 3304.5,4016C 3319.75,4018.58 3330.25,4027.08 3336,4041.5C 3337.45,4067.79 3337.95,4094.12 3337.5,4120.5C 3330.83,4120.5 3324.17,4120.5 3317.5,4120.5C 3317.67,4098.83 3317.5,4077.16 3317,4055.5C 3313.94,4041.28 3305.11,4034.28 3290.5,4034.5C 3278.4,4034.13 3269.9,4039.47 3265,4050.5C 3263.54,4073.78 3263.04,4097.11 3263.5,4120.5C 3256.5,4120.5 3249.5,4120.5 3242.5,4120.5C 3242.5,4068.83 3242.5,4017.17 3242.5,3965.5 Z"/></g>
<g><path style="opacity:1" fill="#000000" d="M 3967.5,3965.5 C 3974.17,3965.5 3980.83,3965.5 3987.5,3965.5C 3987.5,4017.17 3987.5,4068.83 3987.5,4120.5C 3980.83,4120.5 3974.17,4120.5 3967.5,4120.5C 3967.5,4068.83 3967.5,4017.17 3967.5,3965.5 Z"/></g>
<g><path style="opacity:1" fill="#000000" d="M 4430.5,3965.5 C 4437.5,3965.5 4444.5,3965.5 4451.5,3965.5C 4451.5,4017.17 4451.5,4068.83 4451.5,4120.5C 4444.5,4120.5 4437.5,4120.5 4430.5,4120.5C 4430.5,4068.83 4430.5,4017.17 4430.5,3965.5 Z"/></g>
<g><path style="opacity:1" fill="#020202" d="M 2282.5,3968.5 C 2302.45,3964.95 2320.45,3969.11 2336.5,3981C 2339.02,3983.35 2341.35,3985.85 2343.5,3988.5C 2339.17,3993.5 2334.5,3998.17 2329.5,4002.5C 2314.7,3986.65 2297.36,3983.15 2277.5,3992C 2269.51,3998.11 2267.34,4005.94 2271,4015.5C 2275.8,4022.65 2282.3,4027.48 2290.5,4030C 2303.46,4033.65 2315.8,4038.65 2327.5,4045C 2342.35,4056.18 2347.85,4071.02 2344,4089.5C 2340.44,4104.06 2331.61,4113.89 2317.5,4119C 2299.73,4123.76 2282.06,4123.43 2264.5,4118C 2253.94,4113.38 2245.28,4106.38 2238.5,4097C 2242.49,4091.83 2247.15,4087.33 2252.5,4083.5C 2270.09,4103.88 2291.09,4108.38 2315.5,4097C 2324.34,4088.77 2325.84,4079.27 2320,4068.5C 2315.33,4063.5 2309.83,4059.66 2303.5,4057C 2291.29,4052.89 2279.29,4048.23 2267.5,4043C 2250.79,4032.73 2244.62,4017.9 2249,3998.5C 2251.36,3990.29 2255.86,3983.46 2262.5,3978C 2268.89,3973.97 2275.56,3970.8 2282.5,3968.5 Z"/></g>
<g><path style="opacity:1" fill="#020202" d="M 3509.5,3968.5 C 3529.45,3964.95 3547.45,3969.11 3563.5,3981C 3566.22,3983.38 3568.55,3986.05 3570.5,3989C 3566.05,3993.61 3561.38,3998.11 3556.5,4002.5C 3541.7,3986.65 3524.36,3983.15 3504.5,3992C 3493.54,4003 3493.88,4013.67 3505.5,4024C 3517.7,4030.1 3530.37,4035.1 3543.5,4039C 3565.85,4048.52 3575.01,4065.35 3571,4089.5C 3566.35,4106.82 3555.18,4117.32 3537.5,4121C 3515.29,4125.56 3494.96,4121.56 3476.5,4109C 3472.45,4105.29 3468.79,4101.29 3465.5,4097C 3469.95,4092.39 3474.62,4087.89 3479.5,4083.5C 3496.49,4103.37 3517.16,4108.2 3541.5,4098C 3553.43,4086.43 3553.43,4074.76 3541.5,4063C 3530.84,4056.83 3519.51,4052.16 3507.5,4049C 3476.09,4037.11 3467.59,4015.94 3482,3985.5C 3489.6,3977.13 3498.76,3971.46 3509.5,3968.5 Z"/></g>
<g><path style="opacity:1" fill="#030303" d="M 4219.5,3968.5 C 4237.92,3965.82 4254.92,3969.32 4270.5,3979C 4274.31,3981.65 4277.65,3984.81 4280.5,3988.5C 4276.17,3993.5 4271.5,3998.17 4266.5,4002.5C 4250.78,3986.23 4232.78,3983.06 4212.5,3993C 4206.05,4000.32 4204.88,4008.49 4209,4017.5C 4211.17,4019.67 4213.33,4021.83 4215.5,4024C 4231.15,4030.82 4246.82,4037.49 4262.5,4044C 4271.33,4049.15 4277.16,4056.65 4280,4066.5C 4285.68,4097.82 4272.85,4116.32 4241.5,4122C 4221.9,4124.63 4203.9,4120.63 4187.5,4110C 4182.5,4106.33 4178.17,4102 4174.5,4097C 4179.04,4092.12 4183.88,4087.62 4189,4083.5C 4200.87,4098.34 4216.37,4104.84 4235.5,4103C 4255.79,4100.75 4263.29,4089.91 4258,4070.5C 4253.92,4065.04 4248.75,4060.87 4242.5,4058C 4228.72,4053.77 4215.38,4048.44 4202.5,4042C 4186.57,4031.24 4181.07,4016.41 4186,3997.5C 4188.54,3988.97 4193.37,3982.14 4200.5,3977C 4206.67,3973.58 4213,3970.75 4219.5,3968.5 Z"/></g>
<g><path style="opacity:1" fill="#000000" d="M 3022.5,3988.5 C 3004.83,3988.5 2987.17,3988.5 2969.5,3988.5C 2969.5,4032.5 2969.5,4076.5 2969.5,4120.5C 2962.5,4120.5 2955.5,4120.5 2948.5,4120.5C 2948.5,4076.5 2948.5,4032.5 2948.5,3988.5C 2931.17,3988.5 2913.83,3988.5 2896.5,3988.5C 2896.5,3982.5 2896.5,3976.5 2896.5,3970.5C 2938.5,3970.5 2980.5,3970.5 3022.5,3970.5C 3022.5,3976.5 3022.5,3982.5 3022.5,3988.5 Z"/></g>
<g><path style="opacity:1" fill="#030303" d="M 3601.5,3972.5 C 3614.82,3970.66 3620.65,3976.32 3619,3989.5C 3613.33,3998.19 3606.16,3999.69 3597.5,3994C 3592.46,3985.47 3593.79,3978.31 3601.5,3972.5 Z"/></g>
<g><path style="opacity:1" fill="#030303" d="M 4682.5,3972.5 C 4695.8,3970.64 4701.63,3976.3 4700,3989.5C 4694.33,3998.19 4687.16,3999.69 4678.5,3994C 4673.46,3985.47 4674.79,3978.31 4682.5,3972.5 Z"/></g>
<g><path style="opacity:1" fill="#000000" d="M 2795.5,3974.5 C 2802.17,3974.5 2808.83,3974.5 2815.5,3974.5C 2815.5,3988.83 2815.5,4003.17 2815.5,4017.5C 2824.17,4017.5 2832.83,4017.5 2841.5,4017.5C 2841.5,4023.5 2841.5,4029.5 2841.5,4035.5C 2832.83,4035.5 2824.17,4035.5 2815.5,4035.5C 2815.5,4063.83 2815.5,4092.17 2815.5,4120.5C 2808.83,4120.5 2802.17,4120.5 2795.5,4120.5C 2795.5,4092.17 2795.5,4063.83 2795.5,4035.5C 2786.83,4035.5 2778.17,4035.5 2769.5,4035.5C 2769.5,4029.5 2769.5,4023.5 2769.5,4017.5C 2778.17,4017.5 2786.83,4017.5 2795.5,4017.5C 2795.5,4003.17 2795.5,3988.83 2795.5,3974.5 Z"/></g>
<g><path style="opacity:1" fill="#000000" d="M 4611.5,3974.5 C 4618.17,3974.5 4624.83,3974.5 4631.5,3974.5C 4631.5,3988.83 4631.5,4003.17 4631.5,4017.5C 4640.5,4017.5 4649.5,4017.5 4658.5,4017.5C 4658.5,4023.5 4658.5,4029.5 4658.5,4035.5C 4649.5,4035.5 4640.5,4035.5 4631.5,4035.5C 4631.5,4063.83 4631.5,4092.17 4631.5,4120.5C 4624.83,4120.5 4618.17,4120.5 4611.5,4120.5C 4611.5,4092.17 4611.5,4063.83 4611.5,4035.5C 4602.83,4035.5 4594.17,4035.5 4585.5,4035.5C 4585.5,4029.5 4585.5,4023.5 4585.5,4017.5C 4594.17,4017.5 4602.83,4017.5 4611.5,4017.5C 4611.5,4003.17 4611.5,3988.83 4611.5,3974.5 Z"/></g>
<g><path style="opacity:1" fill="#7e7e7e" d="M 3022.5,3988.5 C 3005.34,3989.5 2988.01,3989.83 2970.5,3989.5C 2970.83,4033.34 2970.5,4077 2969.5,4120.5C 2969.5,4076.5 2969.5,4032.5 2969.5,3988.5C 2987.17,3988.5 3004.83,3988.5 3022.5,3988.5 Z"/></g>
<g><path style="opacity:1" fill="#010101" d="M 2389.5,4017.5 C 2389.18,4021.23 2389.51,4024.89 2390.5,4028.5C 2391.11,4028.38 2391.44,4028.04 2391.5,4027.5C 2399.41,4018.63 2409.41,4014.63 2421.5,4015.5C 2436.23,4015.03 2447.9,4020.7 2456.5,4032.5C 2462.83,4024.02 2471.16,4018.52 2481.5,4016C 2498.63,4012.53 2513.13,4017.03 2525,4029.5C 2527.86,4033.89 2530.19,4038.55 2532,4043.5C 2532.5,4069.16 2532.67,4094.83 2532.5,4120.5C 2525.83,4120.5 2519.17,4120.5 2512.5,4120.5C 2512.67,4097.5 2512.5,4074.5 2512,4051.5C 2505.95,4036.89 2495.12,4031.39 2479.5,4035C 2470.77,4037.39 2464.94,4042.89 2462,4051.5C 2461.5,4074.5 2461.33,4097.5 2461.5,4120.5C 2454.83,4120.5 2448.17,4120.5 2441.5,4120.5C 2441.67,4097.83 2441.5,4075.16 2441,4052.5C 2437.04,4040.36 2428.71,4034.03 2416,4033.5C 2405.36,4033.82 2397.36,4038.48 2392,4047.5C 2391.33,4050.17 2390.67,4052.83 2390,4055.5C 2389.5,4077.16 2389.33,4098.83 2389.5,4120.5C 2382.83,4120.5 2376.17,4120.5 2369.5,4120.5C 2369.5,4086.17 2369.5,4051.83 2369.5,4017.5C 2376.17,4017.5 2382.83,4017.5 2389.5,4017.5 Z"/></g>
<g><path style="opacity:1" fill="#020202" d="M 2596.5,4015.5 C 2613.57,4013.25 2628.07,4018.25 2640,4030.5C 2640.5,4026.18 2640.67,4021.85 2640.5,4017.5C 2647.17,4017.5 2653.83,4017.5 2660.5,4017.5C 2660.5,4051.83 2660.5,4086.17 2660.5,4120.5C 2653.83,4120.5 2647.17,4120.5 2640.5,4120.5C 2640.67,4116.15 2640.5,4111.82 2640,4107.5C 2630.08,4117.91 2617.92,4122.91 2603.5,4122.5C 2571.97,4118.64 2555.3,4100.8 2553.5,4069C 2554.81,4040.54 2569.14,4022.7 2596.5,4015.5 Z"/></g>
<g><path style="opacity:1" fill="#010101" d="M 2729.5,4015.5 C 2743.69,4012.78 2755.69,4016.61 2765.5,4027C 2761.69,4031.98 2757.35,4036.48 2752.5,4040.5C 2739.16,4030.56 2726.66,4031.56 2715,4043.5C 2712.52,4047.12 2711.19,4051.12 2711,4055.5C 2710.5,4077.16 2710.33,4098.83 2710.5,4120.5C 2703.83,4120.5 2697.17,4120.5 2690.5,4120.5C 2690.5,4086.17 2690.5,4051.83 2690.5,4017.5C 2697.17,4017.5 2703.83,4017.5 2710.5,4017.5C 2710.33,4020.85 2710.5,4024.18 2711,4027.5C 2716.41,4022.06 2722.57,4018.06 2729.5,4015.5 Z"/></g>
<g><path style="opacity:1" fill="#030303" d="M 3050.5,4015.5 C 3086,4011.89 3106.66,4027.56 3112.5,4062.5C 3111.87,4067.15 3111.54,4071.82 3111.5,4076.5C 3083.83,4076.17 3056.16,4076.5 3028.5,4077.5C 3035.57,4098.55 3050.24,4107.05 3072.5,4103C 3076.39,4102.26 3080.05,4100.93 3083.5,4099C 3086.71,4096.1 3090.05,4093.76 3093.5,4092C 3097.68,4096.01 3101.68,4100.18 3105.5,4104.5C 3094.64,4116.19 3081.14,4122.19 3065,4122.5C 3039.15,4122.42 3020.81,4110.75 3010,4087.5C 3001.87,4057.76 3011.04,4035.26 3037.5,4020C 3041.88,4018.43 3046.21,4016.93 3050.5,4015.5 Z"/></g>
<g><path style="opacity:1" fill="#030303" d="M 3170.5,4015.5 C 3191.27,4012.4 3208.94,4018.24 3223.5,4033C 3219.28,4037.72 3214.61,4041.89 3209.5,4045.5C 3198.33,4035.39 3185.33,4032.23 3170.5,4036C 3152.06,4044.37 3144.9,4058.54 3149,4078.5C 3157.02,4099.1 3171.86,4106.93 3193.5,4102C 3199.72,4099.98 3205.22,4096.81 3210,4092.5C 3214.79,4096.29 3219.29,4100.45 3223.5,4105C 3205.81,4121.98 3185.15,4126.64 3161.5,4119C 3131.63,4104.75 3121.13,4081.58 3130,4049.5C 3137.92,4031.41 3151.42,4020.08 3170.5,4015.5 Z"/></g>
<g><path style="opacity:1" fill="#010101" d="M 3666.5,4017.5 C 3666.18,4021.23 3666.51,4024.89 3667.5,4028.5C 3668.11,4028.38 3668.44,4028.04 3668.5,4027.5C 3676.41,4018.63 3686.41,4014.63 3698.5,4015.5C 3713.23,4015.03 3724.9,4020.7 3733.5,4032.5C 3739.83,4024.02 3748.16,4018.52 3758.5,4016C 3775.63,4012.53 3790.13,4017.03 3802,4029.5C 3805.29,4033.71 3807.62,4038.37 3809,4043.5C 3809.5,4069.16 3809.67,4094.83 3809.5,4120.5C 3802.83,4120.5 3796.17,4120.5 3789.5,4120.5C 3789.67,4097.5 3789.5,4074.5 3789,4051.5C 3782.95,4036.89 3772.12,4031.39 3756.5,4035C 3747.75,4037.42 3741.91,4042.92 3739,4051.5C 3738.5,4074.5 3738.33,4097.5 3738.5,4120.5C 3731.83,4120.5 3725.17,4120.5 3718.5,4120.5C 3718.67,4097.83 3718.5,4075.16 3718,4052.5C 3714.25,4040.08 3705.92,4033.74 3693,4033.5C 3680.94,4033.7 3672.61,4039.36 3668,4050.5C 3666.55,4073.79 3666.05,4097.12 3666.5,4120.5C 3659.83,4120.5 3653.17,4120.5 3646.5,4120.5C 3646.5,4086.17 3646.5,4051.83 3646.5,4017.5C 3653.17,4017.5 3659.83,4017.5 3666.5,4017.5 Z"/></g>
<g><path style="opacity:1" fill="#020202" d="M 3884.5,4015.5 C 3913.68,4013.54 3933.18,4026.21 3943,4053.5C 3948.79,4079.05 3941.29,4099.55 3920.5,4115C 3903.87,4124.17 3886.87,4124.84 3869.5,4117C 3865.08,4114.59 3861.25,4111.42 3858,4107.5C 3857.5,4126.16 3857.33,4144.83 3857.5,4163.5C 3850.83,4163.5 3844.17,4163.5 3837.5,4163.5C 3837.5,4114.83 3837.5,4066.17 3837.5,4017.5C 3844.17,4017.5 3850.83,4017.5 3857.5,4017.5C 3857.33,4021.85 3857.5,4026.18 3858,4030.5C 3865.22,4022.48 3874.05,4017.48 3884.5,4015.5 Z"/></g>
<g><path style="opacity:1" fill="#020202" d="M 4052.5,4015.5 C 4095.94,4012.94 4116.27,4033.27 4113.5,4076.5C 4085.83,4076.33 4058.16,4076.5 4030.5,4077C 4035.2,4094.2 4046.54,4103.03 4064.5,4103.5C 4076.61,4104.27 4086.78,4100.27 4095,4091.5C 4099.35,4095.68 4103.52,4100.01 4107.5,4104.5C 4093.43,4119.53 4076.09,4125.36 4055.5,4122C 4020.28,4113.08 4005.45,4090.58 4011,4054.5C 4017.63,4033.7 4031.46,4020.7 4052.5,4015.5 Z"/></g>
<g><path style="opacity:1" fill="#030303" d="M 4341.5,4015.5 C 4371.44,4012.21 4392.94,4023.88 4406,4050.5C 4413.5,4081.67 4403,4104.51 4374.5,4119C 4347.42,4127.78 4324.92,4121.28 4307,4099.5C 4294.26,4078.27 4294.59,4057.27 4308,4036.5C 4317.07,4025.89 4328.23,4018.89 4341.5,4015.5 Z"/></g>
<g><path style="opacity:1" fill="#030303" d="M 4764.5,4015.5 C 4796.38,4012.01 4818.21,4025.01 4830,4054.5C 4835.37,4085.6 4823.53,4107.43 4794.5,4120C 4769.94,4126.82 4749.11,4120.99 4732,4102.5C 4718.57,4083.62 4716.9,4063.62 4727,4042.5C 4735.96,4028.45 4748.46,4019.45 4764.5,4015.5 Z"/></g>
<g><path style="opacity:1" fill="#010101" d="M 4873.5,4017.5 C 4873.33,4021.85 4873.5,4026.18 4874,4030.5C 4874.72,4029.96 4875.22,4029.29 4875.5,4028.5C 4889.94,4014.81 4906.61,4011.64 4925.5,4019C 4937.07,4024.9 4944.57,4034.07 4948,4046.5C 4948.5,4071.16 4948.67,4095.83 4948.5,4120.5C 4941.83,4120.5 4935.17,4120.5 4928.5,4120.5C 4928.67,4098.16 4928.5,4075.83 4928,4053.5C 4920.85,4035.8 4908.02,4029.97 4889.5,4036C 4882.52,4039.64 4877.69,4045.14 4875,4052.5C 4873.55,4075.12 4873.05,4097.79 4873.5,4120.5C 4866.83,4120.5 4860.17,4120.5 4853.5,4120.5C 4853.5,4086.17 4853.5,4051.83 4853.5,4017.5C 4860.17,4017.5 4866.83,4017.5 4873.5,4017.5 Z"/></g>
<g><path style="opacity:1" fill="#030303" d="M 4998.5,4015.5 C 5014.59,4012.92 5029.25,4016.09 5042.5,4025C 5044.89,4027.05 5046.89,4029.38 5048.5,4032C 5045,4036.83 5040.83,4041 5036,4044.5C 5024.27,4032.87 5010.77,4030.37 4995.5,4037C 4991.1,4042.91 4991.77,4048.24 4997.5,4053C 5009.98,4057.08 5022.31,4061.41 5034.5,4066C 5044.37,4071.4 5049.04,4079.74 5048.5,4091C 5048.01,4106.84 5040.01,4116.84 5024.5,4121C 5006.01,4124.94 4989.01,4121.61 4973.5,4111C 4970.98,4108.65 4968.65,4106.15 4966.5,4103.5C 4970.52,4098.65 4975.02,4094.31 4980,4090.5C 4985.71,4097.85 4993.21,4102.35 5002.5,4104C 5010.09,4104.77 5017.42,4103.77 5024.5,4101C 5029.9,4096.22 5030.57,4090.89 5026.5,4085C 5018.61,4079.94 5009.94,4076.6 5000.5,4075C 4974.14,4067.79 4966.64,4051.96 4978,4027.5C 4983.77,4021.54 4990.61,4017.54 4998.5,4015.5 Z"/></g>
<g><path style="opacity:1" fill="#797979" d="M 2389.5,4017.5 C 2390.17,4020.83 2390.83,4024.17 2391.5,4027.5C 2391.44,4028.04 2391.11,4028.38 2390.5,4028.5C 2389.51,4024.89 2389.18,4021.23 2389.5,4017.5 Z"/></g>
<g><path style="opacity:1" fill="#000000" d="M 3596.5,4017.5 C 3603.17,4017.5 3609.83,4017.5 3616.5,4017.5C 3616.5,4051.83 3616.5,4086.17 3616.5,4120.5C 3609.83,4120.5 3603.17,4120.5 3596.5,4120.5C 3596.5,4086.17 3596.5,4051.83 3596.5,4017.5 Z"/></g>
<g><path style="opacity:1" fill="#797979" d="M 3666.5,4017.5 C 3667.17,4020.83 3667.83,4024.17 3668.5,4027.5C 3668.44,4028.04 3668.11,4028.38 3667.5,4028.5C 3666.51,4024.89 3666.18,4021.23 3666.5,4017.5 Z"/></g>
<g><path style="opacity:1" fill="#010101" d="M 4477.5,4017.5 C 4484.17,4017.5 4490.83,4017.5 4497.5,4017.5C 4497.07,4040.21 4497.57,4062.87 4499,4085.5C 4504.79,4100.65 4515.63,4106.15 4531.5,4102C 4540.96,4098.88 4546.46,4092.38 4548,4082.5C 4548.5,4060.84 4548.67,4039.17 4548.5,4017.5C 4555.17,4017.5 4561.83,4017.5 4568.5,4017.5C 4568.67,4040.17 4568.5,4062.84 4568,4085.5C 4562.49,4110.16 4546.99,4122.49 4521.5,4122.5C 4497.65,4121.15 4483.15,4108.82 4478,4085.5C 4477.5,4062.84 4477.33,4040.17 4477.5,4017.5 Z"/></g>
<g><path style="opacity:1" fill="#000000" d="M 4677.5,4017.5 C 4684.17,4017.5 4690.83,4017.5 4697.5,4017.5C 4697.5,4051.83 4697.5,4086.17 4697.5,4120.5C 4690.83,4120.5 4684.17,4120.5 4677.5,4120.5C 4677.5,4086.17 4677.5,4051.83 4677.5,4017.5 Z"/></g>
<g><path style="opacity:1" fill="#7a7a7a" d="M 4873.5,4017.5 C 4874.17,4021.17 4874.83,4024.83 4875.5,4028.5C 4875.22,4029.29 4874.72,4029.96 4874,4030.5C 4873.5,4026.18 4873.33,4021.85 4873.5,4017.5 Z"/></g>
<g><path style="opacity:1" fill="#fdfdfd" d="M 3057.5,4033.5 C 3076.13,4032.14 3087.8,4040.47 3092.5,4058.5C 3071.17,4059.83 3049.83,4059.83 3028.5,4058.5C 3032.97,4044.02 3042.64,4035.69 3057.5,4033.5 Z"/></g>
<g><path style="opacity:1" fill="#fcfcfc" d="M 4059.5,4033.5 C 4078.67,4032.24 4090.33,4040.9 4094.5,4059.5C 4073.16,4059.67 4051.83,4059.5 4030.5,4059C 4034.77,4044.22 4044.44,4035.72 4059.5,4033.5 Z"/></g>
<g><path style="opacity:1" fill="#fcfcfc" d="M 2598.5,4034.5 C 2624.95,4031.13 2639.28,4042.63 2641.5,4069C 2640.72,4090.95 2629.39,4102.45 2607.5,4103.5C 2586.84,4101.34 2575.84,4089.84 2574.5,4069C 2574.85,4052.15 2582.85,4040.65 2598.5,4034.5 Z"/></g>
<g><path style="opacity:1" fill="#fdfdfd" d="M 3885.5,4033.5 C 3912.12,4034.29 3924.62,4047.95 3923,4074.5C 3918.08,4096.72 3904.25,4106.22 3881.5,4103C 3865.21,4097.69 3856.88,4086.35 3856.5,4069C 3856.92,4049.43 3866.58,4037.6 3885.5,4033.5 Z"/></g>
<g><path style="opacity:1" fill="#fcfcfc" d="M 4347.5,4034.5 C 4366.21,4032.6 4379.04,4040.26 4386,4057.5C 4390.89,4080.91 4382.05,4096.08 4359.5,4103C 4337.9,4104.95 4324.4,4095.45 4319,4074.5C 4317.53,4053.05 4327.03,4039.71 4347.5,4034.5 Z"/></g>
<g><path style="opacity:1" fill="#fcfcfc" d="M 4770.5,4034.5 C 4798.12,4034.29 4811.29,4047.96 4810,4075.5C 4804.86,4094.3 4792.53,4103.64 4773,4103.5C 4753.32,4100.16 4742.82,4088.5 4741.5,4068.5C 4742.66,4049.69 4752.32,4038.36 4770.5,4034.5 Z"/></g>
<g><path style="opacity:1" fill="#030303" d="M 3375.5,4094.5 C 3393.5,4092.33 3400.33,4100 3396,4117.5C 3390.08,4127.67 3384.41,4138.01 3379,4148.5C 3378.44,4149.02 3377.77,4149.36 3377,4149.5C 3373.07,4148.12 3369.57,4146.12 3366.5,4143.5C 3369.91,4136.34 3373.58,4129.34 3377.5,4122.5C 3364.87,4114.12 3364.2,4104.78 3375.5,4094.5 Z"/></g>
</svg>
